<?xml version="1.0" encoding="utf-8"?>
<!-- Generator: Adobe Illustrator 23.0.1, SVG Export Plug-In . SVG Version: 6.00 Build 0)  -->
<svg version="1.1" id="Layer_1" xmlns="http://www.w3.org/2000/svg" xmlns:xlink="http://www.w3.org/1999/xlink" x="0px" y="0px"
	 viewBox="0 0 484.4 148.1" style="enable-background:new 0 0 484.4 148.1;" xml:space="preserve">
<style type="text/css">
	.st0{display:none;}
	.st1{fill:#FFFFFF;}
</style>
<rect x="-1.7" y="-1.3" class="st0" width="486.4" height="152"/>
<g>
	<path class="st1" d="M173.7,36.6v18.1c0,4.8,1.7,7.5,5.1,7.5c3.4,0,5.1-2.5,5.1-7.5V36.6h8.6v17.6c0,9.9-4.9,14.9-13.9,14.9
		c-8.7,0-13.3-4.8-13.3-15.1V36.6H173.7z"/>
	<path class="st1" d="M198.8,60.1c1.9,1,5.1,2,8.3,2c2.9,0,4.4-1,4.4-2.6c0-1.5-1.4-2.4-5-3.7c-5.4-1.9-9-4.9-9-9.6
		c0-5.7,4.8-10,12.8-10c3.8,0,6.5,0.7,8.6,1.6l-1.8,6.8c-1.4-0.6-3.7-1.5-6.9-1.5c-2.6,0-4,1-4,2.4c0,1.6,1.7,2.3,5.7,3.8
		c5.8,2.1,8.3,5.2,8.3,9.6c0,5.5-4.3,10.2-13.6,10.2c-3.9,0-7.6-1-9.4-1.9L198.8,60.1z"/>
	<path class="st1" d="M233.4,36.6v32h-8.6v-32H233.4z"/>
	<path class="st1" d="M239.3,68.6v-32h10.1l5.1,9.8c1.7,3.2,3.6,7.5,5,11.2h0.1c-0.5-4.2-0.6-8.7-0.6-13.5v-7.5h7.8v32h-9l-5.4-10.6
		c-1.8-3.4-3.9-7.7-5.4-11.5h-0.2c0.2,4.3,0.3,9.1,0.3,14.3v7.8H239.3z"/>
	<path class="st1" d="M292.8,55.7h-11.5v5.9h12.8v7h-21.4v-32h20.7v7h-12.2v5.2h11.5V55.7z"/>
	<path class="st1" d="M299.4,60.1c1.9,1,5.1,2,8.3,2c2.9,0,4.4-1,4.4-2.6c0-1.5-1.4-2.4-5-3.7c-5.4-1.9-9-4.9-9-9.6
		c0-5.7,4.8-10,12.8-10c3.8,0,6.5,0.7,8.6,1.6l-1.8,6.8c-1.4-0.6-3.7-1.5-6.9-1.5c-2.6,0-4,1-4,2.4c0,1.6,1.7,2.3,5.7,3.8
		c5.8,2.1,8.3,5.2,8.3,9.6c0,5.5-4.3,10.2-13.6,10.2c-3.9,0-7.6-1-9.4-1.9L299.4,60.1z"/>
	<path class="st1" d="M326,60.1c1.9,1,5.1,2,8.3,2c2.9,0,4.4-1,4.4-2.6c0-1.5-1.4-2.4-5-3.7c-5.4-1.9-9-4.9-9-9.6
		c0-5.7,4.8-10,12.8-10c3.8,0,6.5,0.7,8.6,1.6l-1.8,6.8c-1.4-0.6-3.7-1.5-6.9-1.5c-2.6,0-4,1-4,2.4c0,1.6,1.7,2.3,5.7,3.8
		c5.8,2.1,8.3,5.2,8.3,9.6c0,5.5-4.3,10.2-13.6,10.2c-3.9,0-7.6-1-9.4-1.9L326,60.1z"/>
	<path class="st1" d="M357.2,68.6l-7.3-32h9.2l1.8,11.9c0.6,3.7,1.2,8,1.6,11.2h0.1c0.5-3.6,1.2-7.4,1.9-11.3l2.1-11.7h9.1l2,12.3
		c0.6,3.7,1,6.9,1.4,10.6h0.1c0.4-3.6,1-7.4,1.6-11.1l1.9-11.7h8.7l-7.9,32h-9.3L372,56c-0.5-2.8-0.9-5.8-1.3-9.6h-0.1
		c-0.5,3.8-1,6.8-1.5,9.6l-2.4,12.5H357.2z"/>
	<path class="st1" d="M473.8,55.7h-11.5v5.9h12.8v7h-21.4v-32h20.7v7h-12.2v5.2h11.5V55.7z"/>
	<path class="st1" d="M143.1,81.3h-9.7v-3.5H157v3.5h-9.8v28.5h-4.1V81.3z"/>
	<path class="st1" d="M177.1,94.8h-12.4v11.5h13.9v3.4h-18v-32h17.3v3.4h-13.1v10.1h12.4V94.8z"/>
	<path class="st1" d="M206.2,108.8c-1.5,0.8-4.6,1.5-8.4,1.5c-9,0-15.8-5.7-15.8-16.2c0-10,6.8-16.8,16.7-16.8
		c3.9,0,6.5,0.8,7.6,1.4l-1,3.4c-1.6-0.7-3.8-1.3-6.4-1.3c-7.5,0-12.5,4.8-12.5,13.2c0,7.8,4.5,12.8,12.2,12.8
		c2.5,0,5.1-0.5,6.8-1.3L206.2,108.8z"/>
	<path class="st1" d="M215.5,77.8v13.4H231V77.8h4.1v32H231v-15h-15.4v15h-4.1v-32H215.5z"/>
	<path class="st1" d="M242.3,109.8v-32h4.5L257.1,94c2.3,3.7,4.2,7.1,5.7,10.4l0.1,0c-0.4-4.3-0.4-8.2-0.4-13.1V77.8h3.9v32h-4.2
		L252,93.6c-2.2-3.6-4.3-7.2-5.9-10.7l-0.1,0c0.2,4,0.3,7.9,0.3,13.2v13.7H242.3z"/>
	<path class="st1" d="M300.8,93.5c0,11-6.7,16.8-14.8,16.8c-8.5,0-14.4-6.6-14.4-16.2c0-10.1,6.3-16.8,14.8-16.8
		C295.2,77.3,300.8,84,300.8,93.5z M276,94c0,6.8,3.7,13,10.2,13c6.6,0,10.2-6,10.2-13.3c0-6.4-3.3-13-10.2-13
		C279.4,80.7,276,87,276,94z"/>
	<path class="st1" d="M306.2,77.8h4.1v28.5H324v3.5h-17.8V77.8z"/>
	<path class="st1" d="M375.8,93v15.3c-1.9,0.7-5.5,1.8-9.8,1.8c-4.8,0-8.8-1.2-12-4.2c-0.3-0.3-0.6-0.6-0.9-1
		c0.9-1.4,1.6-2.9,2.1-4.7c1.9,4.2,5.8,6.5,11.1,6.5c2.7,0,4.5-0.4,5.5-0.9v-9.5h-6.5V93H375.8z"/>
	<path class="st1" d="M365.3,93v3.3h6.5v9.5c-1,0.5-2.8,0.9-5.5,0.9c-5.2,0-9.2-2.4-11.1-6.5c-0.5,1.8-1.2,3.3-2.1,4.7
		c0.3,0.4,0.6,0.7,0.9,1c3.1,3,7.1,4.2,12,4.2c4.3,0,8-1.1,9.8-1.8V93H365.3z"/>
	<path class="st1" d="M374.9,79l-1,3.4c-1.7-0.8-3.8-1.4-7.1-1.4c-5.4,0-9.5,2.3-11.5,6.5c-0.7,1.4-1.1,3-1.3,4.8
		c-0.1,0.5-0.1,1-0.1,1.5c0,0,0,0.1,0,0.1c0,1.2,0,2.3-0.2,3.4c-0.4,2.1-1,4-1.9,5.7c-0.4,0.7-0.8,1.3-1.2,1.8
		c-2.7,3.6-6.8,5.4-11.4,5.4c-8.5,0-14.4-6.6-14.4-16.2c0-10.1,6.3-16.8,14.8-16.8c4.9,0,8.8,2.1,11.3,5.6c-1,1.4-1.8,3-2.4,4.7
		c-1.5-3.9-4.5-6.9-9.1-6.9c-6.9,0-10.3,6.3-10.3,13.3c0,6.8,3.7,13,10.2,13c4.4,0,7.5-2.7,9-6.6c0.6-1.5,1-3.3,1.1-5.1
		c0-0.5,0-1,0-1.5c0,0,0,0,0,0c0-1,0-2,0.2-3c0.4-2.1,1.1-4.1,2.2-5.8c0.4-0.6,0.8-1.2,1.3-1.8c3-3.5,7.6-5.5,13.5-5.5
		C370.6,77.5,373.5,78.3,374.9,79z"/>
	<path class="st1" d="M386.7,77.8v32h-4.1v-32H386.7z"/>
	<path class="st1" d="M410.4,94.8h-12.4v11.5h13.9v3.4h-18v-32h17.3v3.4h-13.1v10.1h12.4V94.8z"/>
	<path class="st1" d="M416.7,104.8c1.8,1.2,4.5,2.1,7.4,2.1c4.2,0,6.7-2.2,6.7-5.4c0-3-1.7-4.7-6-6.3c-5.2-1.9-8.5-4.6-8.5-9.1
		c0-5,4.1-8.7,10.4-8.7c3.2,0,5.7,0.8,7,1.5l-1.2,3.4c-1-0.6-3.2-1.5-6-1.5c-4.4,0-6,2.6-6,4.8c0,3,1.9,4.4,6.4,6.1
		c5.4,2.1,8.2,4.7,8.2,9.4c0,4.9-3.6,9.2-11.2,9.2c-3.1,0-6.5-0.9-8.2-2.1L416.7,104.8z"/>
	<path class="st1" d="M410.9,36.6h-11.4l-9.3,32h8.9l1.8-7.4l1.1-6.3l1.4-5.7c0.5-1.8,0.9-4.4,1.4-6.3h0.1c0.5,1.9,1.1,4.5,1.6,6.3
		l1.5,5.7H404l-1.1,6.3h6.2l2,7.4h9.2L410.9,36.6z"/>
	<path class="st1" d="M154.2,51.3v-0.1c3.7-1.4,5.2-4,5.2-6.7c0-3.1-1.8-5.4-4.3-6.6c-2.5-1.2-5.2-1.6-9.7-1.6
		c-3.9,0-8.2,0.3-10.1,0.7v31.3c1.7,0.3,4.6,0.5,8.4,0.5c6.9,0,10.8-1.1,13.2-2.9c2.1-1.6,3.6-4,3.6-7
		C160.5,55.3,158.1,52.4,154.2,51.3z M146.2,62.6c-1.1,0-1.8,0-2.5-0.1V55v-6v-6.2c0.6-0.1,1.4-0.2,2.8-0.2c2.9,0,4.3,1.2,4.3,3.1
		c0,2-1.7,3.3-5.3,3.3v6h0.2c3.2,0,5.7,1,5.7,3.7C151.5,61.5,149,62.6,146.2,62.6z"/>
	<path class="st1" d="M447.4,59.4c-0.8-2.8-2-4.8-4.1-5.7v-0.2c2.5-0.9,5.5-3.7,5.5-7.7c0-3.1-1.1-5.4-3.2-7
		c-2.4-1.8-5.9-2.5-10.8-2.5c-4.3,0-7.9,0.3-10.3,0.7v31.5h8.5v-12v-6.1v-7.6c0.4-0.1,1.3-0.2,2.9-0.2c2.8,0,4.4,1.4,4.4,3.8
		c0,2.4-1.9,4-5.1,4h-0.6v6.1c2.5,0,3.6,0.9,4.5,4.6c0.9,3.9,1.8,6.4,2.2,7.4h8.7C449.4,67.3,448.3,62.7,447.4,59.4z"/>
	<path class="st1" d="M14.7,32.4c3.2-2.5,10.9-7.4,18.6-11.8c8.8-5,14.7-7.7,21.7-9.3c6.8-1.7,14.2-1.5,19.4,1.3
		c4.5,2.5,6,6.5,1.1,11.9l0.2,0.1c9.4-3.3,18.9-3.2,25.2,0.3c5,2.8,6.1,6.6,4.6,10.4c-1.7,4.3-7.7,9.7-21.1,17.2
		c-7.6,4.3-13.5,7.1-17.3,8.8L14.7,32.4z M51.1,34l3.4-1.9c7.1-4,8.4-7.1,4.9-9c-3.1-1.7-7.9-1.3-13.5,1.9c-2.8,1.6-4.2,2.5-5.2,3.3
		L51.1,34z M73.9,46.6c1.4-0.6,2.8-1.4,5-2.6c5.6-3.1,8.4-6.9,3.7-9.5c-4.5-2.5-11.1-0.7-17.4,2.8l-4,2.3L73.9,46.6z"/>
	<path class="st1" d="M9,101.2L8.7,42l11.9,6.3c0,0-2,38.8-2.3,43.9l0.1,0.1c1.6-4.8,4-12,5.9-17.2L30.7,55l9.6,4.4
		c0,0,8.3,43.5,9.5,50l1.5,1.1c-0.5-8.6,0.3-44.4,0.3-44.4l9.4,5l-1.2,58.8l-17.5-9.9c0,0-7.9-37.3-9.2-43.4l-0.1-0.1
		c-1.7,5-11.6,31.1-11.6,31.1L9,101.2z"/>
	<path class="st1" d="M88.2,72.9L70,82.5l0-11.1l54.1-29.8l0,10.6l-17.6,9.5l-0.5,50.2l-18.2,10.4L88.2,72.9z"/>
	<path class="st1" d="M65.4,68.1"/>
</g>
</svg>
