<svg width="486" height="143" viewBox="0 0 486 143" fill="none" xmlns="https://www.w3.org/2000/svg" xmlns:xlink="https://www.w3.org/2000/svg">
<g clip-path="url(#clip0)">
<path fill-rule="evenodd" clip-rule="evenodd" d="M68.1794 141.213C67.2908 140.361 66.5252 139.388 65.8804 138.3C64.7226 135.896 64.269 132.969 64.0934 129.27L64.0632 77.392C64.0808 74.1436 64.8767 71.8754 67.5106 70.2124L79.6762 62.4499C79.9038 63.314 80.0059 64.264 79.9908 65.2936V109.485C79.9908 113.681 80.8627 115.238 82.5928 114.146C83.5247 113.559 84.1455 112.75 84.471 111.69C84.7808 110.638 84.9439 108.863 84.9439 106.361V62.2974C84.9439 61.1598 84.8278 60.1578 84.6064 59.304L102.204 48.0754C102.484 49.1822 102.519 50.3218 102.525 51.0343V95.6889C102.525 99.6056 103.397 101.024 105.127 99.9321C106.059 99.3447 106.68 98.5348 106.976 97.5337C107.286 96.5228 107.434 94.7373 107.434 92.1749V47.7796C107.434 46.7483 107.359 45.7884 107.146 44.9223L124.622 33.7718C124.905 34.7786 124.994 35.7864 125.015 36.7958V84.6436C125.015 93.1135 123.596 100.491 120.771 106.785C117.932 113.088 113.865 117.902 108.558 121.249C105.203 123.365 102.392 124.283 100.1 123.999C97.8226 123.706 95.6788 122.156 93.6975 119.37C90.459 128.907 85.7704 135.623 79.6502 139.483C75.0632 142.376 71.2434 142.956 68.1851 141.217L68.1794 141.213ZM4.86787 30.0802L44.7538 5.08975C49.9814 1.81509 55.8304 0.136411 62.3012 0.0457441C68.7726 -0.0449225 74.5007 1.47509 79.5132 4.60709C85.5471 8.37642 87.4127 12.9843 85.1095 18.4108C90.0215 17.7827 94.2627 17.7734 97.7747 18.3832C101.302 19.0031 104.486 20.7144 108.006 22.4078C112.927 24.775 116.594 26.7384 120.778 29.1614C121.779 29.7416 122.547 30.3322 123.107 30.9182L66.9919 66.2348C64.6356 67.8978 61.5267 68.4974 59.0715 66.9838L47.0288 59.5212C47.6351 58.8974 48.3819 58.3458 49.233 57.813L85.0663 35.3556C86.945 34.178 88.0398 33.3155 88.3308 32.751C88.6371 32.1963 88.3308 31.6223 87.4127 31.0488C85.707 29.9838 83.4048 30.3474 80.5335 32.1411L44.4204 54.7739C43.5272 55.1983 42.7502 55.7578 42.1064 56.4707L24.7466 45.7124C25.3799 45.0259 26.1726 44.4426 27.096 43.9447L62.8986 21.5067C64.7335 20.3567 65.7986 19.4942 66.1199 18.9119C66.4256 18.3198 66.1199 17.7458 65.2012 17.1728C63.4966 16.1072 61.0919 16.5354 58.0163 18.4567L22.2106 40.8963C21.2794 41.3463 20.4808 41.9307 19.8356 42.6692L2.45224 31.8968C3.07308 31.1827 3.88402 30.5802 4.86787 30.0802ZM0.89287 35.0655C0.737141 35.8338 0.648079 36.7431 0.614746 37.7712V51.5578L22.8262 65.4311V101.592C22.8434 106.887 23.9876 113.532 28.4294 116.335C33.9064 119.791 36.683 121.501 40.1127 123.649L44.7256 126.629C41.5095 123.842 40.3756 118.78 40.1548 114.261V76.2551L60.8252 89.1665V77.5936C60.7575 74.3879 59.9116 72.1368 57.6606 70.5187L0.89287 35.0655ZM17.9439 101.311L17.9351 68.4239L0.614746 57.6051C0.614746 67.8577 0.650162 77.1936 0.614746 87.4343V87.6853C0.632454 92.9816 1.79443 99.5977 6.21787 102.429C11.4991 105.808 13.2892 106.98 17.8382 109.706L22.4512 112.686C19.469 110.101 18.2772 105.561 17.9439 101.311V101.311ZM62.1788 137.463L50.5971 130.213C46.1455 127.426 45.0106 120.766 44.9934 115.47V115.219C45.0086 110.872 45.0242 106.285 45.0392 101.819H44.9934V85.5092L60.8252 95.3983V129.326C61.3523 135.05 63.4668 136.763 67.372 140.694L62.1788 137.463Z" fill="white"/>
<path d="M154.057 68.0036C154.909 68.1493 156.015 68.2728 157.383 68.3801C158.743 68.4952 160.373 68.5493 162.263 68.5566C164.469 68.5566 166.39 68.4416 168.026 68.2186C169.663 67.9962 171.061 67.6733 172.222 67.2509C173.382 66.8358 174.35 66.3285 175.127 65.7446C175.826 65.2217 176.433 64.6149 176.947 63.9389C177.462 63.2545 177.862 62.4936 178.147 61.664C178.439 60.8342 178.577 59.9353 178.585 58.9665C178.577 57.7296 178.339 56.6077 177.854 55.6009C177.378 54.5946 176.687 53.7337 175.781 53.0192C174.873 52.3045 173.782 51.7665 172.498 51.4056V51.3134C173.706 50.8446 174.689 50.2681 175.434 49.5842C176.179 48.9004 176.727 48.1473 177.063 47.3249C177.409 46.503 177.578 45.6498 177.57 44.7665C177.563 43.7676 177.378 42.853 177.018 42.0306C176.657 41.2088 176.157 40.4941 175.527 39.879C174.897 39.2645 174.182 38.7728 173.375 38.404C172.567 37.9889 171.715 37.6738 170.809 37.4588C169.909 37.2358 168.887 37.0821 167.765 36.9973C166.635 36.9129 165.345 36.8738 163.877 36.8821C162.917 36.8821 161.957 36.8978 160.995 36.9358C160.035 36.9744 159.121 37.0206 158.245 37.0821C157.361 37.143 156.57 37.2124 155.847 37.2894C155.133 37.3665 154.533 37.443 154.057 37.5274V68.0036ZM162.309 43.0145C162.578 42.9681 162.925 42.9222 163.362 42.8837C163.793 42.853 164.346 42.8296 165.03 42.8296C166.435 42.8373 167.489 43.1066 168.181 43.6364C168.879 44.167 169.225 44.8973 169.225 45.8269C169.233 46.8258 168.795 47.617 167.926 48.1858C167.058 48.7545 165.745 49.0468 163.969 49.054H162.309V43.0145ZM162.309 54.9556H164.293C165.345 54.9478 166.29 55.0706 167.119 55.317C167.949 55.5629 168.602 55.9468 169.087 56.4848C169.57 57.0228 169.818 57.7222 169.825 58.5978C169.818 59.505 169.579 60.2348 169.11 60.7957C168.649 61.3645 168.034 61.7796 167.266 62.0405C166.497 62.302 165.645 62.4249 164.706 62.4249C164.185 62.4249 163.723 62.4249 163.339 62.417C162.947 62.402 162.602 62.379 162.309 62.3326V54.9556" fill="white"/>
<path d="M183.103 37.1131V54.0338C183.103 57.3609 183.593 60.112 184.577 62.2786C185.561 64.4458 187.013 66.0593 188.943 67.1204C190.872 68.1724 193.26 68.6953 196.104 68.6953C199.016 68.6953 201.475 68.1573 203.481 67.0813C205.487 66.0136 207.008 64.4073 208.045 62.2713C209.084 60.127 209.605 57.4609 209.613 54.2646V37.1131H201.268V54.7256C201.268 57.1923 200.86 59.036 200.047 60.2656C199.232 61.4875 197.993 62.1027 196.336 62.1027C195.244 62.1027 194.336 61.8104 193.615 61.2338C192.892 60.6573 192.347 59.8276 191.985 58.7286C191.624 57.6302 191.447 56.3005 191.447 54.7256V37.1131H183.103Z" fill="white"/>
<path d="M214.27 66.7589C214.87 67.074 215.638 67.3735 216.583 67.6735C217.536 67.9651 218.596 68.2037 219.764 68.3958C220.932 68.5874 222.147 68.688 223.399 68.6953C225.666 68.688 227.64 68.4188 229.308 67.8885C230.975 67.3661 232.351 66.6432 233.442 65.7219C234.534 64.7995 235.348 63.7464 235.878 62.548C236.416 61.3568 236.679 60.0813 236.679 58.7365C236.684 56.577 236.032 54.7256 234.711 53.1885C233.388 51.6516 231.344 50.3833 228.563 49.377C227.264 48.8926 226.196 48.4704 225.374 48.1089C224.551 47.748 223.944 47.387 223.56 47.0104C223.168 46.6417 222.976 46.1958 222.984 45.6885C222.992 44.9896 223.323 44.4286 223.991 44.0136C224.659 43.6062 225.627 43.3912 226.903 43.3833C227.948 43.3912 228.903 43.4756 229.754 43.6292C230.615 43.7906 231.368 43.9822 232.028 44.2057C232.682 44.436 233.235 44.6511 233.68 44.8589L235.432 38.2193C234.411 37.7511 233.212 37.3666 231.836 37.0666C230.468 36.7672 228.855 36.6136 226.995 36.6057C225.036 36.6136 223.284 36.8593 221.747 37.351C220.202 37.8432 218.903 38.5344 217.835 39.4104C216.76 40.2942 215.946 41.324 215.392 42.4994C214.831 43.6756 214.555 44.951 214.547 46.3344C214.555 47.8636 214.923 49.2234 215.638 50.3989C216.352 51.5751 217.367 52.6041 218.666 53.4724C219.964 54.3412 221.502 55.0786 223.26 55.6932C224.42 56.0854 225.366 56.462 226.088 56.8229C226.803 57.1765 227.334 57.5532 227.663 57.9448C227.994 58.3448 228.156 58.7901 228.148 59.2896C228.148 60.0813 227.802 60.7037 227.103 61.1489C226.396 61.5953 225.335 61.8177 223.906 61.8256C222.868 61.8177 221.855 61.7256 220.863 61.5406C219.872 61.3568 218.942 61.1109 218.082 60.8188C217.22 60.527 216.475 60.2193 215.838 59.889L214.27 66.7589" fill="white"/>
<path d="M241.15 68.1875H249.494V37.1126H241.15V68.1875Z" fill="white"/>
<path d="M262.819 68.1875V60.5339C262.819 58.0136 262.796 55.5932 262.751 53.2568C262.703 50.9287 262.635 48.7079 262.542 46.6104H262.68C263.18 47.8782 263.718 49.1615 264.31 50.4678C264.903 51.7735 265.502 53.0574 266.123 54.3099C266.746 55.5626 267.344 56.7459 267.936 57.8599L273.194 68.1875H281.954V37.1126H274.346V44.4432C274.346 46.7719 274.392 49.023 274.499 51.1975C274.599 53.3724 274.76 55.4855 274.991 57.5375H274.852C274.392 56.3156 273.892 55.0631 273.355 53.7798C272.816 52.5042 272.255 51.2588 271.687 50.037C271.111 48.8235 270.535 47.6938 269.966 46.6563L265.032 37.1126H255.211V68.1875H262.819" fill="white"/>
<path d="M307.218 48.9156H296.061V43.8896H307.91V37.1126H287.716V68.1875H308.557V61.3642H296.061V55.647H307.218V48.9156Z" fill="white"/>
<path d="M312.152 66.7589C312.751 67.074 313.52 67.3735 314.466 67.6735C315.418 67.9651 316.479 68.2037 317.647 68.3958C318.815 68.5874 320.028 68.688 321.282 68.6953C323.548 68.688 325.523 68.4188 327.191 67.8885C328.858 67.3661 330.234 66.6432 331.324 65.7219C332.415 64.7995 333.23 63.7464 333.76 62.548C334.299 61.3568 334.56 60.0813 334.56 58.7365C334.567 56.577 333.914 54.7256 332.592 53.1885C331.272 51.6516 329.227 50.3833 326.446 49.377C325.148 48.8926 324.078 48.4704 323.256 48.1089C322.434 47.748 321.827 47.387 321.443 47.0104C321.051 46.6417 320.859 46.1958 320.866 45.6885C320.874 44.9896 321.204 44.4286 321.872 44.0136C322.542 43.6062 323.51 43.3912 324.784 43.3833C325.83 43.3912 326.783 43.4756 327.636 43.6292C328.496 43.7906 329.251 43.9822 329.911 44.2057C330.563 44.436 331.118 44.6511 331.563 44.8589L333.315 38.2193C332.292 37.7511 331.094 37.3666 329.719 37.0666C328.351 36.7672 326.736 36.6136 324.878 36.6057C322.918 36.6136 321.166 36.8593 319.63 37.351C318.084 37.8432 316.786 38.5344 315.718 39.4104C314.642 40.2942 313.827 41.324 313.274 42.4994C312.714 43.6756 312.436 44.951 312.428 46.3344C312.436 47.8636 312.806 49.2234 313.52 50.3989C314.235 51.5751 315.248 52.6041 316.547 53.4724C317.847 54.3412 319.383 55.0786 321.143 55.6932C322.303 56.0854 323.248 56.462 323.971 56.8229C324.686 57.1765 325.215 57.5532 325.546 57.9448C325.876 58.3448 326.038 58.7901 326.03 59.2896C326.03 60.0813 325.684 60.7037 324.984 61.1489C324.278 61.5953 323.218 61.8177 321.788 61.8256C320.751 61.8177 319.736 61.7256 318.746 61.5406C317.754 61.3568 316.824 61.1109 315.963 60.8188C315.103 60.527 314.358 60.2193 313.72 59.889L312.152 66.7589" fill="white"/>
<path d="M338.018 66.7589C338.616 67.074 339.384 67.3735 340.33 67.6735C341.284 67.9651 342.344 68.2037 343.511 68.3958C344.682 68.5874 345.894 68.688 347.147 68.6953C349.414 68.688 351.388 68.4188 353.056 67.8885C354.723 67.3661 356.099 66.6432 357.19 65.7219C358.28 64.7995 359.095 63.7464 359.626 62.548C360.163 61.3568 360.426 60.0813 360.426 58.7365C360.432 56.577 359.779 54.7256 358.458 53.1885C357.136 51.6516 355.092 50.3833 352.311 49.377C351.011 48.8926 349.944 48.4704 349.122 48.1089C348.299 47.748 347.692 47.387 347.308 47.0104C346.915 46.6417 346.724 46.1958 346.731 45.6885C346.739 44.9896 347.07 44.4286 347.739 44.0136C348.406 43.6062 349.375 43.3912 350.651 43.3833C351.695 43.3912 352.648 43.4756 353.502 43.6292C354.362 43.7906 355.115 43.9822 355.775 44.2057C356.428 44.436 356.982 44.6511 357.427 44.8589L359.18 38.2193C358.158 37.7511 356.959 37.3666 355.584 37.0666C354.216 36.7672 352.602 36.6136 350.743 36.6057C348.784 36.6136 347.031 36.8593 345.494 37.351C343.95 37.8432 342.651 38.5344 341.584 39.4104C340.507 40.2942 339.692 41.324 339.139 42.4994C338.579 43.6756 338.302 44.951 338.294 46.3344C338.302 47.8636 338.671 49.2234 339.384 50.3989C340.1 51.5751 341.114 52.6041 342.414 53.4724C343.711 54.3412 345.248 55.0786 347.008 55.6932C348.168 56.0854 349.114 56.462 349.836 56.8229C350.551 57.1765 351.08 57.5532 351.411 57.9448C351.742 58.3448 351.903 58.7901 351.895 59.2896C351.895 60.0813 351.551 60.7037 350.851 61.1489C350.143 61.5953 349.083 61.8177 347.654 61.8256C346.616 61.8177 345.602 61.7256 344.611 61.5406C343.619 61.3568 342.69 61.1109 341.83 60.8188C340.968 60.527 340.223 60.2193 339.584 59.889L338.018 66.7589" fill="white"/>
<path d="M379.097 68.1875L381.448 56.062C381.634 55.1396 381.801 54.1948 381.963 53.2266C382.127 52.2506 382.287 51.2287 382.44 50.1527C382.594 49.0766 382.755 47.924 382.924 46.7027H383.016C383.224 48.5312 383.431 50.2068 383.647 51.7203C383.854 53.2339 384.078 54.6708 384.307 56.0156L386.382 68.1875H395.465L403.117 37.1126H394.682L392.836 48.5464C392.56 50.3755 392.284 52.1964 392.023 54.0104C391.753 55.8235 391.5 57.5984 391.269 59.3355H391.178C391.039 58.1751 390.9 57.0303 390.755 55.9156C390.617 54.7938 390.463 53.6719 390.308 52.55C390.147 51.4282 389.979 50.2755 389.793 49.1L387.857 37.1126H378.959L376.976 48.5464C376.631 50.437 376.3 52.3115 375.993 54.1636C375.685 56.0084 375.41 57.8142 375.179 59.5656H375.087C374.917 58.4979 374.74 57.3448 374.563 56.1156C374.387 54.886 374.211 53.6412 374.025 52.3656C373.841 51.0902 373.658 49.8454 373.472 48.6386L371.675 37.1126H362.729L369.876 68.1875H379.097" fill="white"/>
<path d="M420.453 60.9954L422.436 68.1875H431.427L422.16 37.1126H411.095L402.059 68.1875H410.681L412.432 60.9954H420.453ZM413.539 54.8167L414.875 49.2844C415.029 48.6922 415.183 48.0318 415.336 47.3094C415.491 46.5948 415.645 45.8646 415.797 45.135C415.951 44.4047 416.105 43.7287 416.259 43.1063H416.351C416.504 43.7287 416.673 44.4047 416.851 45.1271C417.027 45.8495 417.204 46.5642 417.372 47.2787C417.551 47.9932 417.719 48.6464 417.872 49.238L419.301 54.8167H413.539" fill="white"/>
<path d="M435.393 68.1875H443.646V56.523H444.985C445.629 56.5151 446.19 56.5766 446.666 56.6995C447.15 56.8303 447.565 57.0532 447.927 57.3834C448.279 57.7063 448.587 58.1672 448.849 58.7588C449.11 59.3506 449.341 60.1115 449.547 61.0412C450.017 62.9547 450.431 64.5068 450.807 65.7058C451.177 66.8964 451.485 67.7266 451.714 68.1875H460.245C460.09 67.8724 459.921 67.3964 459.721 66.735C459.53 66.0823 459.314 65.3292 459.091 64.4839C458.869 63.6312 458.63 62.7547 458.394 61.8558C458.146 60.949 457.909 60.0959 457.662 59.2891C457.409 58.3979 457.101 57.5834 456.747 56.861C456.394 56.1386 455.971 55.5084 455.473 54.986C454.981 54.4636 454.389 54.0484 453.697 53.7568V53.5724C454.319 53.349 454.942 53.0188 455.565 52.5735C456.187 52.1276 456.763 51.5818 457.286 50.9366C457.815 50.2907 458.23 49.561 458.554 48.7386C458.877 47.924 459.038 47.0255 459.045 46.0568C459.038 44.535 458.777 43.2136 458.246 42.0995C457.715 40.9776 456.955 40.0402 455.957 39.2798C454.789 38.411 453.335 37.7964 451.599 37.4199C449.862 37.0506 447.811 36.8735 445.445 36.8818C443.354 36.8818 441.457 36.9432 439.742 37.0662C438.029 37.1812 436.585 37.3355 435.393 37.5271V68.1875ZM443.646 43.1984C443.846 43.1527 444.169 43.1063 444.622 43.0678C445.067 43.037 445.682 43.0142 446.458 43.0142C447.849 43.037 448.91 43.3678 449.639 43.9902C450.37 44.6199 450.739 45.5194 450.746 46.7027C450.746 47.4787 450.554 48.1547 450.162 48.7308C449.778 49.3074 449.217 49.7604 448.487 50.0834C447.749 50.4063 446.858 50.5678 445.815 50.5755H443.646V43.1984" fill="white"/>
<path d="M483.343 48.9156H472.185V43.8896H484.035V37.1126H463.84V68.1875H484.68V61.3642H472.185V55.647H483.343V48.9156Z" fill="white"/>
<path d="M160.602 109.646H164.66V81.9829H174.16V78.5714H151.15V81.9829H160.602V109.646" fill="white"/>
<path d="M193.66 91.7574H181.627V81.937H194.399V78.5714H177.569V109.646H195.089V106.281H181.627V95.0772H193.66V91.7574" fill="white"/>
<path d="M221.185 105.451C220.64 105.713 220.017 105.943 219.311 106.136C218.603 106.328 217.851 106.474 217.051 106.581C216.244 106.689 215.429 106.742 214.592 106.742C212.08 106.727 209.936 106.22 208.169 105.205C206.401 104.191 205.048 102.754 204.111 100.887C203.173 99.0272 202.705 96.8143 202.697 94.2476C202.705 92.2039 202.996 90.3903 203.565 88.7996C204.141 87.2168 204.964 85.872 206.025 84.7804C207.093 83.6819 208.368 82.8523 209.851 82.2835C211.341 81.7148 212.993 81.4304 214.823 81.4304C216.121 81.4382 217.297 81.5611 218.351 81.7991C219.403 82.0376 220.303 82.345 221.048 82.7215L222.061 79.4482C221.708 79.2559 221.193 79.0559 220.525 78.8408C219.856 78.6335 219.035 78.4491 218.065 78.3028C217.089 78.1491 215.96 78.0726 214.684 78.0648C212.264 78.0726 210.067 78.4643 208.084 79.2403C206.103 80.0163 204.396 81.1231 202.96 82.56C201.521 83.9971 200.415 85.7179 199.639 87.7086C198.855 89.7064 198.463 91.9346 198.456 94.3862C198.471 96.945 198.855 99.2043 199.616 101.171C200.376 103.131 201.444 104.775 202.828 106.104C204.203 107.442 205.817 108.448 207.677 109.132C209.528 109.809 211.557 110.154 213.763 110.154C215.031 110.147 216.191 110.078 217.251 109.939C218.312 109.793 219.249 109.609 220.048 109.386C220.848 109.163 221.485 108.932 221.969 108.679L221.185 105.451" fill="white"/>
<path d="M226.995 78.5714V109.646H231.052V95.0772H246.083V109.646H250.14V78.5714H246.083V91.573H231.052V78.5714H226.995Z" fill="white"/>
<path d="M260.884 109.646V96.3678C260.884 94.6548 260.875 93.0714 260.86 91.6194C260.846 90.1667 260.822 88.7834 260.783 87.4699C260.736 86.1479 260.684 84.8496 260.606 83.5506L260.744 83.5048C261.514 85.1954 262.396 86.9089 263.38 88.6533C264.372 90.4047 265.416 92.1418 266.508 93.8782L276.375 109.646H280.432V78.5714H276.651V91.573C276.651 93.1793 276.667 94.6928 276.69 96.1146C276.712 97.5361 276.766 98.9189 276.827 100.264C276.896 101.608 276.99 102.969 277.112 104.344L276.974 104.39C276.259 102.807 275.444 101.178 274.523 99.5184C273.6 97.8512 272.571 96.1069 271.44 94.2933L261.528 78.5714H257.102V109.646H260.884Z" fill="white"/>
<path d="M299.98 78.0184C297.897 78.0262 295.976 78.4106 294.232 79.1788C292.48 79.9471 290.966 81.046 289.676 82.4752C288.384 83.9122 287.385 85.6258 286.678 87.6236C285.964 89.6294 285.602 91.8658 285.596 94.3398C285.602 96.6991 285.941 98.8428 286.617 100.779C287.293 102.708 288.246 104.376 289.484 105.774C290.72 107.173 292.196 108.249 293.901 109.009C295.608 109.762 297.49 110.147 299.565 110.154C301.156 110.154 302.678 109.924 304.114 109.47C305.55 109.025 306.873 108.349 308.072 107.457C309.269 106.566 310.314 105.467 311.198 104.145C312.082 102.831 312.774 101.309 313.258 99.581C313.742 97.8518 313.989 95.9152 313.996 93.7867C313.989 91.4586 313.658 89.3372 313.005 87.4163C312.352 85.4876 311.414 83.8278 310.185 82.4294C308.962 81.0231 307.488 79.9398 305.766 79.1788C304.053 78.4179 302.116 78.0262 299.98 78.0184V78.0184ZM299.841 81.2919C301.178 81.2996 302.377 81.5382 303.438 82.0148C304.505 82.483 305.428 83.1362 306.22 83.9586C307.01 84.7882 307.672 85.7414 308.194 86.8174C308.717 87.8928 309.109 89.0455 309.37 90.2595C309.624 91.4815 309.754 92.7184 309.754 93.971C309.754 95.7466 309.532 97.4138 309.093 98.9658C308.656 100.518 308.01 101.886 307.165 103.069C306.312 104.253 305.274 105.182 304.037 105.859C302.8 106.527 301.386 106.865 299.796 106.881C298.52 106.873 297.36 106.65 296.314 106.212C295.269 105.767 294.348 105.152 293.541 104.36C292.733 103.569 292.057 102.639 291.512 101.586C290.958 100.526 290.544 99.3731 290.26 98.1283C289.984 96.8835 289.836 95.5924 289.836 94.2476C289.836 92.8876 289.968 91.5658 290.236 90.2982C290.497 89.0304 290.897 87.8466 291.434 86.7554C291.965 85.672 292.634 84.7195 293.433 83.8971C294.232 83.0824 295.169 82.4444 296.237 81.9914C297.305 81.5304 298.505 81.2996 299.841 81.2919" fill="white"/>
<path d="M319.16 109.646H336.496V106.281H323.217V78.5714H319.16V109.646Z" fill="white"/>
<path d="M351.711 78.0184C349.628 78.0262 347.707 78.4106 345.963 79.1788C344.211 79.9471 342.696 81.046 341.405 82.4752C340.115 83.9122 339.116 85.6258 338.409 87.6236C337.693 89.6294 337.333 91.8658 337.325 94.3398C337.333 96.6991 337.671 98.8428 338.348 100.779C339.024 102.708 339.977 104.376 341.213 105.774C342.451 107.173 343.927 108.249 345.632 109.009C347.339 109.762 349.22 110.147 351.296 110.154C352.887 110.154 354.408 109.924 355.844 109.47C357.281 109.025 358.603 108.349 359.803 107.457C361.001 106.566 362.045 105.467 362.929 104.145C363.813 102.831 364.505 101.309 364.989 99.581C365.473 97.8518 365.719 95.9152 365.727 93.7867C365.719 91.4586 365.389 89.3372 364.735 87.4163C364.081 85.4876 363.145 83.8278 361.915 82.4294C360.693 81.0231 359.219 79.9398 357.496 79.1788C355.783 78.4179 353.847 78.0262 351.711 78.0184ZM351.572 81.2919C352.909 81.2996 354.108 81.5382 355.168 82.0148C356.236 82.483 357.159 83.1362 357.951 83.9586C358.741 84.7882 359.403 85.7414 359.925 86.8174C360.448 87.8928 360.839 89.0455 361.101 90.2595C361.355 91.4815 361.484 92.7184 361.484 93.971C361.484 95.7466 361.263 97.4138 360.824 98.9658C360.387 100.518 359.74 101.886 358.896 103.069C358.043 104.253 357.005 105.182 355.769 105.859C354.531 106.527 353.116 106.865 351.527 106.881C350.251 106.873 349.091 106.65 348.045 106.212C347 105.767 346.077 105.152 345.271 104.36C344.464 103.569 343.788 102.639 343.243 101.586C342.689 100.526 342.275 99.3731 341.991 98.1283C341.713 96.8835 341.567 95.5924 341.567 94.2476C341.567 92.8876 341.697 91.5658 341.967 90.2982C342.228 89.0304 342.628 87.8466 343.165 86.7554C343.696 85.672 344.364 84.7195 345.164 83.8971C345.963 83.0824 346.9 82.4444 347.968 81.9914C349.036 81.5304 350.235 81.2996 351.572 81.2919" fill="white"/>
<path d="M394.635 93.3244H384.4V96.5514H390.67V105.819C390.21 106.057 389.532 106.249 388.634 106.411C387.743 106.564 386.636 106.641 385.322 106.649C383.494 106.649 381.848 106.365 380.374 105.796C378.906 105.235 377.646 104.412 376.592 103.337C375.548 102.253 374.74 100.939 374.182 99.3946C373.619 97.8425 373.342 96.0826 373.335 94.1081C373.342 92.1561 373.634 90.4118 374.227 88.8676C374.81 87.3305 375.647 86.0165 376.748 84.941C377.846 83.8572 379.151 83.0353 380.688 82.4665C382.218 81.9056 383.931 81.6134 385.83 81.6134C386.874 81.6134 387.803 81.6748 388.634 81.7826C389.464 81.8977 390.21 82.0514 390.878 82.2509C391.547 82.4509 392.154 82.6894 392.699 82.9504L393.715 79.6769C393.26 79.454 392.66 79.2389 391.899 79.016C391.139 78.8009 390.255 78.6165 389.24 78.4706C388.235 78.3321 387.127 78.2556 385.922 78.2477C383.308 78.2556 380.964 78.6629 378.898 79.454C376.823 80.2457 375.056 81.3597 373.603 82.7968C372.143 84.2337 371.03 85.9244 370.26 87.8758C369.484 89.828 369.1 91.9644 369.094 94.2925C369.1 95.9138 369.278 97.4358 369.623 98.8722C369.968 100.301 370.468 101.608 371.114 102.791C371.759 103.974 372.527 104.997 373.427 105.865C374.948 107.31 376.678 108.354 378.615 109.008C380.551 109.661 382.694 109.976 385.046 109.969C386.451 109.961 387.766 109.861 388.995 109.676C390.224 109.492 391.323 109.269 392.284 109.015C393.244 108.754 394.028 108.501 394.635 108.262V93.3244" fill="white"/>
<path d="M400.675 109.646H404.732V78.5714H400.675V109.646Z" fill="white"/>
<path d="M427.785 91.7574H415.751V81.937H428.523V78.5714H411.693V109.646H429.215V106.281H415.751V95.0772H427.785V91.7574" fill="white"/>
<path d="M432.857 108.126C433.425 108.502 434.132 108.84 434.985 109.14C435.839 109.447 436.768 109.693 437.767 109.878C438.773 110.054 439.772 110.147 440.787 110.154C442.615 110.147 444.213 109.901 445.575 109.424C446.935 108.948 448.056 108.287 448.957 107.457C449.847 106.627 450.515 105.666 450.96 104.591C451.399 103.515 451.621 102.37 451.621 101.164C451.621 99.6496 451.329 98.3356 450.745 97.2215C450.161 96.0996 449.285 95.1242 448.117 94.2862C446.949 93.4564 445.489 92.7034 443.739 92.0351C442.308 91.4892 441.14 90.9439 440.233 90.3903C439.319 89.8372 438.643 89.207 438.205 88.5152C437.775 87.8236 437.559 87.0018 437.559 86.0408C437.559 85.5034 437.66 84.9652 437.875 84.4195C438.089 83.8742 438.435 83.3747 438.896 82.9132C439.357 82.46 439.964 82.0914 440.709 81.8148C441.455 81.5304 442.355 81.3919 443.415 81.384C444.352 81.3919 445.205 81.4762 445.965 81.6304C446.735 81.7914 447.387 81.9835 447.948 82.2064C448.503 82.4372 448.947 82.6523 449.269 82.8595L450.377 79.5862C449.931 79.3174 449.377 79.0715 448.709 78.8408C448.048 78.6106 447.28 78.4258 446.419 78.2876C445.56 78.1419 444.599 78.0648 443.553 78.0648C442.039 78.0726 440.664 78.2799 439.436 78.7028C438.205 79.1174 437.144 79.7091 436.26 80.4695C435.377 81.2226 434.701 82.1143 434.224 83.1439C433.748 84.1658 433.509 85.2882 433.501 86.5023C433.509 87.9392 433.84 89.2148 434.501 90.3132C435.161 91.4122 436.107 92.3804 437.328 93.2028C438.551 94.0247 440.011 94.7476 441.708 95.3543C443.1 95.8695 444.229 96.4226 445.089 97.0064C445.959 97.5903 446.58 98.2434 446.98 98.9736C447.372 99.7034 447.572 100.541 447.564 101.486C447.564 102.539 447.303 103.461 446.788 104.253C446.281 105.044 445.544 105.666 444.575 106.113C443.607 106.558 442.439 106.781 441.063 106.789C439.665 106.773 438.36 106.581 437.129 106.205C435.9 105.828 434.832 105.352 433.917 104.759L432.857 108.126" fill="white"/>
</g>
<defs>
<clipPath id="clip0">
<rect width="485.333" height="142.667" fill="white"/>
</clipPath>
</defs>
</svg>
