<svg width="104" height="104" viewBox="0 0 104 104" fill="none" xmlns="http://www.w3.org/2000/svg">
<path d="M34.4509 26.1329L46.7182 20L53.9444 26.1329L67.2927 26.3686H71.7101L69.8223 38L66.8807 48.733L58.8223 55.1736L51.8223 57L43.3743 54.4078L36.8414 47L33.8223 40.2073L32.8223 30.6876" fill="#FEDAC6"/>
<path fill-rule="evenodd" clip-rule="evenodd" d="M53.8659 32.929L58.9845 32L64.9508 32.9287L65.8223 36.2686L64.8157 39.5858L58.9845 41L54.4127 39.0252L52.8223 34.6917L53.8659 32.929Z" fill="#BDD6D3"/>
<path fill-rule="evenodd" clip-rule="evenodd" d="M49.7786 32.929L44.66 32L38.6937 32.9287L37.8223 36.2686L38.8288 39.5858L44.66 41L49.2318 39.0252L50.8223 34.6917L49.7786 32.929Z" fill="#BDD6D3"/>
<path d="M86.2901 86.0394C85.9787 82.3189 85.0382 78.6781 83.5087 75.2722L81.994 71.8995C80.5394 68.6603 77.9828 66.0423 74.7792 64.511L64.6899 59.6886C64.1418 59.4266 63.5043 59.428 62.9573 59.6922L57.3985 62.378C57.024 62.559 56.7152 62.8521 56.5151 63.2168L54.1634 67.503C53.8121 68.1431 53.1401 68.541 52.4099 68.541H52.2547C51.492 68.541 50.7957 68.1072 50.4595 67.4225L48.4626 63.3559C48.2416 62.9059 47.8597 62.5553 47.3926 62.3735L40.3095 59.6173C39.7511 59.4001 39.1248 59.4446 38.6027 59.7386L28.467 65.4471C25.5314 67.1004 23.2379 69.6939 21.956 72.8097L20.7671 75.6995C19.4805 78.8268 18.6822 82.1332 18.4002 85.503L18.0071 90.2006C17.9095 91.3668 18.8298 92.3673 20.0001 92.3673H84.6453C85.8156 92.3673 86.7359 91.3668 86.6383 90.2006L86.2901 86.0394Z" fill="#D02D2D"/>
</svg>
