<svg width="104" height="104" viewBox="0 0 104 104" fill="none" xmlns="http://www.w3.org/2000/svg">
<path d="M83.2456 95.873C83.2456 90.9951 82.2544 86.1682 80.3322 81.685C77.4621 74.9912 72.2932 69.5442 65.7588 66.3276L59.1117 63.0555C58.7546 62.8797 58.3366 62.8777 57.9779 63.05L49.1408 67.2935C48.71 67.5004 48.3675 67.8548 48.1753 68.2924L48.0201 68.6459C47.3469 70.1793 45.1686 70.1711 44.5069 68.6327C44.225 67.9772 43.7092 67.4502 43.0601 67.154L34.1857 63.1057C33.7298 62.8977 33.2045 62.9055 32.7549 63.1268L28.9914 64.9789C20.6977 69.0607 14.1357 75.972 10.4892 84.466C9.35227 87.1144 8.76414 89.9658 8.76036 92.848L8.75098 100.007C8.74953 101.113 9.64538 102.01 10.751 102.01H81.9504C82.6657 102.01 83.2456 101.43 83.2456 100.715V95.873Z" fill="#F0C7C8"/>
</svg>
