<svg width="104" height="104" viewBox="0 0 104 104" fill="none" xmlns="https://www.w3.org/2000/svg">
<path d="M35.8625 62.522H49.9565L48.2285 71H18.7985L20.1485 64.304L36.6725 51.452C38.5805 49.976 39.8945 48.734 40.6145 47.726C41.3345 46.682 41.6945 45.62 41.6945 44.54C41.6945 43.46 41.2985 42.614 40.5065 42.002C39.7145 41.354 38.5805 41.03 37.1045 41.03C35.7725 41.03 34.4945 41.354 33.2705 42.002C32.0825 42.65 31.0205 43.586 30.0845 44.81L22.9565 40.112C24.4685 37.772 26.6105 35.918 29.3825 34.55C32.1905 33.146 35.3045 32.444 38.7245 32.444C41.4245 32.444 43.8185 32.894 45.9065 33.794C48.0305 34.694 49.6865 35.954 50.8745 37.574C52.0625 39.158 52.6565 40.94 52.6565 42.92C52.6565 45.296 51.9905 47.51 50.6585 49.562C49.3625 51.614 47.0765 53.882 43.8005 56.366L35.8625 62.522ZM74.7007 33.2L67.1407 71H56.4487L62.3347 41.462H55.3147L56.9887 33.2H74.7007Z" fill="#FCE4B8"/>
</svg>
