<svg width="104" height="104" viewBox="0 0 104 104" fill="none" xmlns="https://www.w3.org/2000/svg">
<path d="M34.7394 67.406H45.7014L44.3574 74H21.4674L22.5174 68.792L35.3694 58.796C36.8534 57.648 37.8754 56.682 38.4354 55.898C38.9954 55.086 39.2754 54.26 39.2754 53.42C39.2754 52.58 38.9674 51.922 38.3514 51.446C37.7354 50.942 36.8534 50.69 35.7054 50.69C34.6694 50.69 33.6754 50.942 32.7234 51.446C31.7994 51.95 30.9734 52.678 30.2454 53.63L24.7014 49.976C25.8774 48.156 27.5434 46.714 29.6994 45.65C31.8834 44.558 34.3054 44.012 36.9654 44.012C39.0654 44.012 40.9274 44.362 42.5514 45.062C44.2034 45.762 45.4914 46.742 46.4154 48.002C47.3394 49.234 47.8014 50.62 47.8014 52.16C47.8014 54.008 47.2834 55.73 46.2474 57.326C45.2394 58.922 43.4614 60.686 40.9134 62.618L34.7394 67.406ZM72.376 49.808L64.858 56.57C66.762 57.102 68.232 58.012 69.268 59.3C70.332 60.56 70.864 62.1 70.864 63.92C70.864 65.964 70.248 67.798 69.016 69.422C67.784 71.018 66.09 72.278 63.934 73.202C61.778 74.126 59.342 74.588 56.626 74.588C54.47 74.588 52.44 74.322 50.536 73.79C48.632 73.23 46.98 72.418 45.58 71.354L49.444 65.432C50.48 66.216 51.67 66.818 53.014 67.238C54.386 67.658 55.772 67.868 57.172 67.868C58.88 67.868 60.182 67.574 61.078 66.986C62.002 66.37 62.464 65.516 62.464 64.424C62.464 62.772 61.162 61.946 58.558 61.946H54.988L56.038 56.696L62.338 51.026H50.83L52.132 44.6H73.384L72.376 49.808Z" fill="#FCE4B8"/>
</svg>
