<svg width="104" height="104" viewBox="0 0 104 104" fill="none" xmlns="https://www.w3.org/2000/svg">
<g clip-path="url(#clip0)">
<path fill-rule="evenodd" clip-rule="evenodd" d="M23.5868 75.7673L28.8922 42.9048H22.5205L25.1008 34H41.0233L34.3884 75.7673H23.5868Z" fill="#FCE4B8"/>
<path d="M70.04 54.5549C73.12 56.5949 74.66 59.3549 74.66 62.8349C74.66 65.6349 73.88 68.0749 72.32 70.1549C70.8 72.2349 68.66 73.8349 65.9 74.9549C63.14 76.0749 59.96 76.6349 56.36 76.6349C52.92 76.6349 49.92 76.1549 47.36 75.1949C44.8 74.2349 42.82 72.8549 41.42 71.0549C40.02 69.2549 39.32 67.1749 39.32 64.8149C39.32 62.0549 40.06 59.6749 41.54 57.6749C43.02 55.6749 45.14 54.1349 47.9 53.0549C45.62 51.2549 44.48 48.9149 44.48 46.0349C44.48 43.4349 45.18 41.1749 46.58 39.2549C48.02 37.2949 50 35.7949 52.52 34.7549C55.08 33.7149 57.98 33.1949 61.22 33.1949C64.3 33.1949 67.02 33.6549 69.38 34.5749C71.74 35.4549 73.58 36.7149 74.9 38.3549C76.22 39.9949 76.88 41.9149 76.88 44.1149C76.88 46.5149 76.28 48.5949 75.08 50.3549C73.92 52.1149 72.24 53.5149 70.04 54.5549ZM61.04 40.3349C58.96 40.3349 57.28 40.8549 56 41.8949C54.76 42.8949 54.14 44.2949 54.14 46.0949C54.14 47.5349 54.68 48.6749 55.76 49.5149C56.88 50.3549 58.4 50.7749 60.32 50.7749C62.4 50.7749 64.06 50.2749 65.3 49.2749C66.58 48.2349 67.22 46.8549 67.22 45.1349C67.22 43.6549 66.66 42.4949 65.54 41.6549C64.42 40.7749 62.92 40.3349 61.04 40.3349ZM56.54 69.4949C59.06 69.4949 61.06 68.9149 62.54 67.7549C64.06 66.5549 64.82 64.9349 64.82 62.8949C64.82 61.2149 64.16 59.8949 62.84 58.9349C61.52 57.9349 59.7 57.4349 57.38 57.4349C54.86 57.4349 52.84 58.0149 51.32 59.1749C49.84 60.3349 49.1 61.9149 49.1 63.9149C49.1 65.6349 49.78 66.9949 51.14 67.9949C52.5 68.9949 54.3 69.4949 56.54 69.4949Z" fill="#FCE4B8"/>
</g>
<defs>
<clipPath id="clip0">
<rect width="54" height="74" fill="white" transform="translate(22.5205 17)"/>
</clipPath>
</defs>
</svg>
