<svg width="104" height="104" viewBox="0 0 104 104" fill="none" xmlns="http://www.w3.org/2000/svg">
<path d="M32.2912 67.406H43.2532L41.9092 74H19.0191L20.0691 68.792L32.9211 58.796C34.4051 57.648 35.4271 56.682 35.9872 55.898C36.5471 55.086 36.8271 54.26 36.8271 53.42C36.8271 52.58 36.5191 51.922 35.9032 51.446C35.2871 50.942 34.4051 50.69 33.2572 50.69C32.2212 50.69 31.2272 50.942 30.2751 51.446C29.3511 51.95 28.5251 52.678 27.7971 53.63L22.2531 49.976C23.4291 48.156 25.0951 46.714 27.2511 45.65C29.4351 44.558 31.8571 44.012 34.5172 44.012C36.6172 44.012 38.4791 44.362 40.1031 45.062C41.7551 45.762 43.0431 46.742 43.9672 48.002C44.8912 49.234 45.3532 50.62 45.3532 52.16C45.3532 54.008 44.8352 55.73 43.7992 57.326C42.7912 58.922 41.0132 60.686 38.4651 62.618L32.2912 67.406ZM72.5366 68.372H68.1687L67.0347 74H58.9707L60.1046 68.372H44.5646L45.6146 62.954L62.1627 44.6H71.1087L55.9467 61.778H61.7847L62.7927 56.78H70.4787L69.4707 61.778H73.8807L72.5366 68.372Z" fill="#FCE4B8"/>
</svg>
