<svg width="104" height="104" viewBox="0 0 104 104" fill="none" xmlns="http://www.w3.org/2000/svg">
<path d="M33.556 67.249H44.779L43.403 74H19.968L21.043 68.668L34.201 58.434C35.7203 57.2587 36.7667 56.2697 37.34 55.467C37.9133 54.6357 38.2 53.79 38.2 52.93C38.2 52.07 37.8847 51.3963 37.254 50.909C36.6233 50.393 35.7203 50.135 34.545 50.135C33.4843 50.135 32.4667 50.393 31.492 50.909C30.546 51.425 29.7003 52.1703 28.955 53.145L23.279 49.404C24.483 47.5407 26.1887 46.0643 28.396 44.975C30.632 43.857 33.1117 43.298 35.835 43.298C37.985 43.298 39.8913 43.6563 41.554 44.373C43.2453 45.0897 44.564 46.093 45.51 47.383C46.456 48.6443 46.929 50.0633 46.929 51.64C46.929 53.532 46.3987 55.295 45.338 56.929C44.306 58.563 42.4857 60.369 39.877 62.347L33.556 67.249ZM59.3282 74.602C55.8596 74.602 53.1076 73.5843 51.0722 71.549C49.0656 69.485 48.0622 66.6327 48.0622 62.992C48.0622 59.3227 48.7359 55.9973 50.0832 53.016C51.4592 50.006 53.3656 47.641 55.8022 45.921C58.2389 44.1723 60.9909 43.298 64.0582 43.298C67.5269 43.298 70.2646 44.33 72.2712 46.394C74.3066 48.4293 75.3242 51.2673 75.3242 54.908C75.3242 58.5773 74.6362 61.917 73.2602 64.927C71.9129 67.9083 70.0209 70.2733 67.5842 72.022C65.1476 73.742 62.3956 74.602 59.3282 74.602ZM60.1452 67.636C61.5212 67.636 62.7109 66.9623 63.7142 65.615C64.7176 64.2677 65.4772 62.6193 65.9932 60.67C66.5092 58.7207 66.7672 56.8717 66.7672 55.123C66.7672 53.4603 66.4519 52.242 65.8212 51.468C65.2192 50.6653 64.3592 50.264 63.2412 50.264C61.8652 50.264 60.6756 50.9377 59.6722 52.285C58.6689 53.6323 57.9092 55.2807 57.3932 57.23C56.8772 59.1793 56.6192 61.0283 56.6192 62.777C56.6192 66.0163 57.7946 67.636 60.1452 67.636Z" fill="#FCE4B8"/>
</svg>
