<svg width="104" height="104" viewBox="0 0 104 104" fill="none" xmlns="https://www.w3.org/2000/svg">
<g clip-path="url(#clip0)">
<path fill-rule="evenodd" clip-rule="evenodd" d="M23.5868 75.7673L28.8922 42.9048H22.5205L25.1008 34H41.0233L34.3884 75.7673H23.5868Z" fill="#FCE4B8"/>
<path d="M58.52 33.1949C61.88 33.1949 64.82 33.8549 67.34 35.1749C69.9 36.4949 71.88 38.4549 73.28 41.0549C74.72 43.6149 75.44 46.7349 75.44 50.4149C75.44 54.6549 74.54 58.7949 72.74 62.8349C70.94 66.8349 68.14 70.1349 64.34 72.7349C60.54 75.3349 55.84 76.6349 50.24 76.6349C47.92 76.6349 45.7 76.3949 43.58 75.9149C41.5 75.3949 39.8 74.6949 38.48 73.8149L42.92 66.6749C44.92 68.0349 47.54 68.7149 50.78 68.7149C54.7 68.7149 57.82 67.6149 60.14 65.4149C62.5 63.2149 64.06 60.3749 64.82 56.8949C62.42 59.1349 59.28 60.2549 55.4 60.2549C52.88 60.2549 50.58 59.7749 48.5 58.8149C46.42 57.8549 44.76 56.4749 43.52 54.6749C42.28 52.8349 41.66 50.6549 41.66 48.1349C41.66 45.1349 42.38 42.5149 43.82 40.2749C45.3 37.9949 47.32 36.2549 49.88 35.0549C52.44 33.8149 55.32 33.1949 58.52 33.1949ZM57.92 52.9949C60.2 52.9949 62.04 52.3749 63.44 51.1349C64.84 49.8949 65.54 48.3149 65.54 46.3949C65.54 44.7149 64.92 43.3149 63.68 42.1949C62.44 41.0349 60.76 40.4549 58.64 40.4549C56.48 40.4549 54.72 41.0749 53.36 42.3149C52 43.5549 51.32 45.2149 51.32 47.2949C51.32 49.0549 51.92 50.4549 53.12 51.4949C54.32 52.4949 55.92 52.9949 57.92 52.9949Z" fill="#FCE4B8"/>
</g>
<defs>
<clipPath id="clip0">
<rect width="54" height="74" fill="white" transform="translate(22.5205 17)"/>
</clipPath>
</defs>
</svg>
