<svg width="104" height="104" viewBox="0 0 104 104" fill="none" xmlns="https://www.w3.org/2000/svg">
<path fill-rule="evenodd" clip-rule="evenodd" d="M3.36914 60.5386C8.29927 59.5892 13.3215 62.3327 15.0658 67.1779C9.68813 69.0964 3.77066 66.3071 1.84863 60.9577C2.34889 60.7744 2.8623 60.6369 3.36914 60.5386Z" fill="#FFC966"/>
<path fill-rule="evenodd" clip-rule="evenodd" d="M19.6468 40.1887C20.7723 39.9726 21.9506 39.9333 23.1485 40.1167C22.306 45.7345 17.0402 49.6042 11.3926 48.7661C12.0574 44.3333 15.467 40.994 19.6468 40.1887Z" fill="#FFC966"/>
<path fill-rule="evenodd" clip-rule="evenodd" d="M1.00633 45.5447C5.93646 45.6822 9.95823 49.231 10.86 53.8536C11.0048 54.5869 11.0706 55.3465 11.0443 56.1191C5.33747 55.9554 0.841773 51.2215 1.00633 45.5447Z" fill="#FFC966"/>
<path fill-rule="evenodd" clip-rule="evenodd" d="M19.0352 51.4048C21.6549 56.4595 19.6605 62.6601 14.5855 65.2661C14.1248 64.3756 13.8022 63.4459 13.6245 62.5095C12.7688 58.1357 14.862 53.5524 19.0352 51.4048Z" fill="#FFC966"/>
<path fill-rule="evenodd" clip-rule="evenodd" d="M22.537 74.5833C22.5765 74.6161 22.616 74.6488 22.6554 74.675C19.0023 79.0488 12.4858 79.6512 8.08887 76.0238C9.68178 74.1184 11.8079 72.9333 14.0722 72.4946C16.6853 71.9905 19.4762 72.4881 21.8063 74.053C22.0433 74.2297 22.2803 74.4065 22.5238 74.5768C22.5304 74.5833 22.537 74.5833 22.537 74.5833Z" fill="#FFC966"/>
<path fill-rule="evenodd" clip-rule="evenodd" d="M100.312 60.5386C95.3814 59.5892 90.3591 62.3327 88.6148 67.1779C93.9925 69.0964 99.91 66.3071 101.832 60.9577C101.332 60.7744 100.818 60.6369 100.312 60.5386Z" fill="#FFC966"/>
<path fill-rule="evenodd" clip-rule="evenodd" d="M84.0349 40.1887C82.9093 39.9726 81.7311 39.9333 80.5331 40.1167C81.3756 45.7345 86.6415 49.6042 92.2891 48.7661C91.6243 44.3333 88.2146 40.994 84.0349 40.1887Z" fill="#FFC966"/>
<path fill-rule="evenodd" clip-rule="evenodd" d="M102.675 45.5446C97.7452 45.6821 93.7234 49.2309 92.8216 53.8535C92.6768 54.5869 92.611 55.3464 92.6373 56.119C98.3442 55.9553 102.84 51.2214 102.675 45.5446Z" fill="#FFC966"/>
<path fill-rule="evenodd" clip-rule="evenodd" d="M84.6465 51.4048C82.0267 56.4595 84.0212 62.6601 89.0961 65.2661C89.5569 64.3756 89.8794 63.4459 90.0571 62.5095C90.9128 58.1357 88.8197 53.5524 84.6465 51.4048Z" fill="#FFC966"/>
<path fill-rule="evenodd" clip-rule="evenodd" d="M81.1447 74.5833C81.1052 74.6161 81.0657 74.6488 81.0262 74.675C84.6794 79.0488 91.1958 79.6512 95.5928 76.0238C93.9999 74.1184 91.8738 72.9333 89.6095 72.4946C86.9963 71.9905 84.2054 72.4881 81.8753 74.053C81.6383 74.2297 81.4014 74.4065 81.1578 74.5768C81.1513 74.5833 81.1447 74.5833 81.1447 74.5833Z" fill="#FFC966"/>
</svg>
