<svg width="104" height="104" viewBox="0 0 104 104" fill="none" xmlns="https://www.w3.org/2000/svg">
<path d="M33.0148 64.092H44.4988L43.0908 71H19.1108L20.2108 65.544L33.6748 55.072C35.2295 53.8693 36.3001 52.8573 36.8868 52.036C37.4735 51.1853 37.7668 50.32 37.7668 49.44C37.7668 48.56 37.4441 47.8707 36.7988 47.372C36.1535 46.844 35.2295 46.58 34.0268 46.58C32.9415 46.58 31.9001 46.844 30.9028 47.372C29.9348 47.9 29.0695 48.6627 28.3068 49.66L22.4988 45.832C23.7308 43.9253 25.4761 42.4147 27.7348 41.3C30.0228 40.156 32.5601 39.584 35.3468 39.584C37.5468 39.584 39.4975 39.9507 41.1988 40.684C42.9295 41.4173 44.2788 42.444 45.2468 43.764C46.2148 45.0547 46.6988 46.5067 46.6988 48.12C46.6988 50.056 46.1561 51.86 45.0708 53.532C44.0148 55.204 42.1521 57.052 39.4828 59.076L33.0148 64.092ZM59.8786 46.932L58.6026 51.42H59.9226C63.6773 51.42 66.5373 52.1533 68.5026 53.62C70.468 55.0867 71.4506 57.2133 71.4506 60C71.4506 62.3467 70.8053 64.4 69.5146 66.16C68.2533 67.92 66.4933 69.2693 64.2346 70.208C61.976 71.1467 59.4093 71.616 56.5346 71.616C54.276 71.616 52.1493 71.3373 50.1546 70.78C48.16 70.1933 46.4293 69.3427 44.9626 68.228L49.0106 62.024C50.096 62.8453 51.3426 63.476 52.7506 63.916C54.188 64.356 55.64 64.576 57.1066 64.576C58.8666 64.576 60.2306 64.268 61.1986 63.652C62.1666 63.0067 62.6506 62.1267 62.6506 61.012C62.6506 60.1027 62.2546 59.4133 61.4626 58.944C60.7 58.4453 59.4533 58.196 57.7226 58.196H48.8786L54.0266 40.2H73.6066L72.2426 46.932H59.8786Z" fill="#FCE4B8"/>
</svg>
