<svg width="104" height="104" viewBox="0 0 104 104" fill="none" xmlns="http://www.w3.org/2000/svg">
<path d="M33.4015 65.935H45.1465L43.7065 73H19.1815L20.3065 67.42L34.0765 56.71C35.6665 55.48 36.7615 54.445 37.3615 53.605C37.9615 52.735 38.2615 51.85 38.2615 50.95C38.2615 50.05 37.9315 49.345 37.2715 48.835C36.6115 48.295 35.6665 48.025 34.4365 48.025C33.3265 48.025 32.2615 48.295 31.2415 48.835C30.2515 49.375 29.3665 50.155 28.5865 51.175L22.6465 47.26C23.9065 45.31 25.6915 43.765 28.0015 42.625C30.3415 41.455 32.9365 40.87 35.7865 40.87C38.0365 40.87 40.0315 41.245 41.7715 41.995C43.5415 42.745 44.9215 43.795 45.9115 45.145C46.9015 46.465 47.3965 47.95 47.3965 49.6C47.3965 51.58 46.8415 53.425 45.7315 55.135C44.6515 56.845 42.7465 58.735 40.0165 60.805L33.4015 65.935ZM59.94 65.935H71.685L70.245 73H45.72L46.845 67.42L60.615 56.71C62.205 55.48 63.3 54.445 63.9 53.605C64.5 52.735 64.8 51.85 64.8 50.95C64.8 50.05 64.47 49.345 63.81 48.835C63.15 48.295 62.205 48.025 60.975 48.025C59.865 48.025 58.8 48.295 57.78 48.835C56.79 49.375 55.905 50.155 55.125 51.175L49.185 47.26C50.445 45.31 52.23 43.765 54.54 42.625C56.88 41.455 59.475 40.87 62.325 40.87C64.575 40.87 66.57 41.245 68.31 41.995C70.08 42.745 71.46 43.795 72.45 45.145C73.44 46.465 73.935 47.95 73.935 49.6C73.935 51.58 73.38 53.425 72.27 55.135C71.19 56.845 69.285 58.735 66.555 60.805L59.94 65.935Z" fill="#FCE4B8"/>
</svg>
