<svg width="104" height="104" viewBox="0 0 104 104" fill="none" xmlns="http://www.w3.org/2000/svg">
<path d="M66.3682 52.5051C72.5947 58.2861 48.1363 75.9207 48.1363 78.2965C48.1363 80.6722 58.5652 76.3897 62.8108 74.2943C131.284 38.1196 77.9741 22.6427 8.11491 43.1667C5.83885 43.8354 1 45.8348 1 46.7239C1.00046 49.837 53.9179 42.7221 66.3682 52.5051Z" fill="#FCE4B8"/>
<path d="M50.7979 47.9006L46.7979 35.0966L49.624 34.79L52.2979 34.5419L57.147 48.8844L53.9641 48.3152L50.7979 47.9006Z" fill="#FCE4B8"/>
<path d="M77.9627 65.3488L75.7979 66.7751L73.574 68.1765L64.2979 61.395L65.0583 60.3454L65.7979 59.2443L66.4996 57.978L67.0888 56.5619L77.9627 65.3488Z" fill="#FCE4B8"/>
<path d="M50.7979 47.9006L46.7979 35.0966L49.624 34.79L52.2979 34.5419L57.147 48.8844L53.9641 48.3152L50.7979 47.9006Z" fill="#BDD6D3"/>
<path d="M77.9627 65.3488L75.7979 66.7751L73.574 68.1765L64.2979 61.395L65.0583 60.3454L65.7979 59.2443L66.4996 57.978L67.0888 56.5619L77.9627 65.3488Z" fill="#BDD6D3"/>
<path d="M9.182 54.048C10.358 54.048 11.387 54.279 12.269 54.741C13.165 55.203 13.858 55.889 14.348 56.799C14.852 57.695 15.104 58.787 15.104 60.075C15.104 61.559 14.789 63.008 14.159 64.422C13.529 65.822 12.549 66.977 11.219 67.887C9.889 68.797 8.244 69.252 6.284 69.252C5.472 69.252 4.695 69.168 3.953 69C3.225 68.818 2.63 68.573 2.168 68.265L3.722 65.766C4.422 66.242 5.339 66.48 6.473 66.48C7.845 66.48 8.937 66.095 9.749 65.325C10.575 64.555 11.121 63.561 11.387 62.343C10.547 63.127 9.448 63.519 8.09 63.519C7.208 63.519 6.403 63.351 5.675 63.015C4.947 62.679 4.366 62.196 3.932 61.566C3.498 60.922 3.281 60.159 3.281 59.277C3.281 58.227 3.533 57.31 4.037 56.526C4.555 55.728 5.262 55.119 6.158 54.699C7.054 54.265 8.062 54.048 9.182 54.048ZM8.972 60.978C9.77 60.978 10.414 60.761 10.904 60.327C11.394 59.893 11.639 59.34 11.639 58.668C11.639 58.08 11.422 57.59 10.988 57.198C10.554 56.792 9.966 56.589 9.224 56.589C8.468 56.589 7.852 56.806 7.376 57.24C6.9 57.674 6.662 58.255 6.662 58.983C6.662 59.599 6.872 60.089 7.292 60.453C7.712 60.803 8.272 60.978 8.972 60.978ZM21.2501 69.252C19.6121 69.252 18.3171 68.762 17.3651 67.782C16.4131 66.788 15.9371 65.423 15.9371 63.687C15.9371 61.923 16.2591 60.306 16.9031 58.836C17.5611 57.366 18.4711 56.204 19.6331 55.35C20.7951 54.482 22.1181 54.048 23.6021 54.048C25.2401 54.048 26.5351 54.545 27.4871 55.539C28.4391 56.519 28.9151 57.877 28.9151 59.613C28.9151 61.377 28.5861 62.994 27.9281 64.464C27.2841 65.934 26.3811 67.103 25.2191 67.971C24.0571 68.825 22.7341 69.252 21.2501 69.252ZM21.5651 66.375C22.3771 66.375 23.0771 66.025 23.6651 65.325C24.2671 64.625 24.7221 63.757 25.0301 62.721C25.3381 61.671 25.4921 60.663 25.4921 59.697C25.4921 58.759 25.2961 58.066 24.9041 57.618C24.5261 57.156 23.9871 56.925 23.2871 56.925C22.4751 56.925 21.7681 57.275 21.1661 57.975C20.5781 58.675 20.1301 59.55 19.8221 60.6C19.5141 61.636 19.3601 62.637 19.3601 63.603C19.3601 64.541 19.5491 65.241 19.9271 65.703C20.3191 66.151 20.8651 66.375 21.5651 66.375ZM33.5495 62.238C32.5835 62.238 31.8065 61.944 31.2185 61.356C30.6445 60.768 30.3575 59.956 30.3575 58.92C30.3575 58.038 30.5255 57.233 30.8615 56.505C31.1975 55.777 31.6805 55.203 32.3105 54.783C32.9545 54.349 33.7035 54.132 34.5575 54.132C35.5235 54.132 36.2935 54.426 36.8675 55.014C37.4555 55.602 37.7495 56.414 37.7495 57.45C37.7495 58.346 37.5815 59.158 37.2455 59.886C36.9095 60.6 36.4195 61.174 35.7755 61.608C35.1455 62.028 34.4035 62.238 33.5495 62.238ZM43.4405 54.3H46.0865L33.2765 69H30.6095L43.4405 54.3ZM33.7385 60.516C34.3545 60.516 34.8235 60.215 35.1455 59.613C35.4675 59.011 35.6285 58.332 35.6285 57.576C35.6285 57.002 35.5165 56.575 35.2925 56.295C35.0685 56.001 34.7605 55.854 34.3685 55.854C33.7525 55.854 33.2835 56.155 32.9615 56.757C32.6395 57.359 32.4785 58.038 32.4785 58.794C32.4785 59.368 32.5905 59.802 32.8145 60.096C33.0385 60.376 33.3465 60.516 33.7385 60.516ZM42.1595 69.168C41.1795 69.168 40.4025 68.874 39.8285 68.286C39.2545 67.698 38.9675 66.886 38.9675 65.85C38.9675 64.968 39.1355 64.163 39.4715 63.435C39.8075 62.707 40.2905 62.133 40.9205 61.713C41.5645 61.293 42.3065 61.083 43.1465 61.083C44.1265 61.083 44.9035 61.377 45.4775 61.965C46.0655 62.553 46.3595 63.365 46.3595 64.401C46.3595 65.297 46.1915 66.109 45.8555 66.837C45.5195 67.551 45.0295 68.118 44.3855 68.538C43.7555 68.958 43.0135 69.168 42.1595 69.168ZM42.3485 67.467C42.9505 67.467 43.4125 67.166 43.7345 66.564C44.0705 65.948 44.2385 65.262 44.2385 64.506C44.2385 63.932 44.1195 63.505 43.8815 63.225C43.6575 62.931 43.3565 62.784 42.9785 62.784C42.3625 62.784 41.8865 63.092 41.5505 63.708C41.2285 64.31 41.0675 64.989 41.0675 65.745C41.0675 66.319 41.1795 66.753 41.4035 67.047C41.6415 67.327 41.9565 67.467 42.3485 67.467Z" fill="#FCE4B8"/>
</svg>
