<svg width="104" height="104" viewBox="0 0 104 104" fill="none" xmlns="https://www.w3.org/2000/svg">
<path d="M70.3682 48.5051C76.5947 54.2861 52.1363 71.9207 52.1363 74.2965C52.1363 76.6722 62.5652 72.3897 66.8108 70.2943C135.284 34.1196 81.9741 18.6427 12.1149 39.1667C9.83885 39.8354 5 41.8348 5 42.7239C5.00046 45.837 57.9179 38.7221 70.3682 48.5051Z" fill="#FFC966"/>
<path d="M54.7979 43.9006L50.7979 31.0966L53.624 30.79L56.2979 30.5419L61.147 44.8844L57.9641 44.3152L54.7979 43.9006Z" fill="#FFC966"/>
<path d="M81.9627 61.3488L79.7979 62.7751L77.574 64.1765L68.2979 57.395L69.0583 56.3454L69.7979 55.2443L70.4996 53.978L71.0888 52.5619L81.9627 61.3488Z" fill="#FFC966"/>
<path d="M54.7979 43.9006L50.7979 31.0966L53.624 30.79L56.2979 30.5419L61.147 44.8844L57.9641 44.3152L54.7979 43.9006Z" fill="#8DCBC2"/>
<path d="M81.9627 61.3488L79.7979 62.7751L77.574 64.1765L68.2979 57.395L69.0583 56.3454L69.7979 55.2443L70.4996 53.978L71.0888 52.5619L81.9627 61.3488Z" fill="#8DCBC2"/>
</svg>
