<svg width="104" height="104" viewBox="0 0 104 104" fill="none" xmlns="https://www.w3.org/2000/svg">
<path fill-rule="evenodd" clip-rule="evenodd" d="M72.2338 34.0101C72.2338 50.9576 58.1607 58.0305 52.175 58.0305C46.1893 58.0305 32.1165 50.9576 32.1162 34.0104C32.1162 20.7442 33.9403 9.9902 52.175 9.9902C70.4102 9.9902 72.2338 20.7442 72.2338 34.0101ZM46.1256 24.3713C39.571 24.2342 36.5234 27.3258 35.1141 30.0013C35.0558 31.3256 35.0362 32.6703 35.0365 34.0104C35.0365 42.2942 38.7619 47.427 41.8873 50.2741C45.8251 53.8617 50.1973 55.1638 52.1753 55.1638C54.1532 55.1638 58.5254 53.8617 62.4632 50.2741C65.5884 47.427 69.314 42.2942 69.314 34.0104C69.314 32.5 69.2897 30.9835 69.2123 29.4973C50.0326 33.6757 46.1256 24.3713 46.1256 24.3713Z" fill="#5D2940"/>
<path fill-rule="evenodd" clip-rule="evenodd" d="M86.3351 75.0611C88.2574 79.5442 89.2485 84.3712 89.2485 89.249V94.0906C89.2485 94.8059 88.6686 95.3858 87.9533 95.3858H16.7539C15.6483 95.3858 14.7525 94.4888 14.7539 93.3832L14.7633 86.224C14.7671 83.3419 15.3552 80.4904 16.4922 77.8421C20.1386 69.348 26.7006 62.4367 34.9943 58.355L38.7578 56.5028C39.2074 56.2815 39.7327 56.2738 40.1887 56.4818L49.063 60.5301C49.7122 60.8262 50.2279 61.3533 50.5098 62.0087C51.1716 63.5471 53.3498 63.5553 54.0231 62.0219L54.1783 61.6684C54.3704 61.2308 54.7129 60.8765 55.1438 60.6696L63.9808 56.426C64.3396 56.2537 64.7576 56.2558 65.1146 56.4315L71.7617 59.7036C78.2961 62.9203 83.465 68.3673 86.3351 75.0611ZM82.8519 73.959C84.7611 78.2103 85.7482 82.8178 85.7482 87.4782V90.3576C85.7482 91.4621 84.8528 92.3576 83.7482 92.3576H20.7543C19.6497 92.3576 18.7543 91.4621 18.7543 90.3576V86.9316C18.7543 82.6245 19.5975 78.3591 21.2362 74.376L21.8846 72.7999C23.1665 69.6841 25.46 67.0906 28.3956 65.4373L38.5313 59.7288C39.0533 59.4348 39.6797 59.3903 40.238 59.6076L47.3212 62.3637C47.7883 62.5455 48.1702 62.8961 48.3911 63.3461L50.388 67.4127C50.7242 68.0974 51.4206 68.5312 52.1833 68.5312H52.3385C53.0686 68.5312 53.7407 68.1333 54.0919 67.4932L56.4437 63.207C56.6438 62.8424 56.9525 62.5492 57.327 62.3682L62.8859 59.6825C63.4329 59.4182 64.0703 59.4168 64.6184 59.6788L74.7078 64.5012C77.9114 66.0325 80.4679 68.6506 81.9226 71.8897L82.8519 73.959Z" fill="#5D2940"/>
<path d="M48.4104 78.8685C48.4104 78.9652 48.3523 79.0529 48.2618 79.0916L44.2488 80.8176L48.2618 82.5433C48.3521 82.582 48.4104 82.67 48.4104 82.7664V84.0578C48.4104 84.1409 48.3672 84.2181 48.2957 84.2629C48.2553 84.2885 48.2087 84.3014 48.1623 84.3014C48.1265 84.3014 48.0911 84.2939 48.0576 84.2785L42.1026 81.5623C42.0153 81.5223 41.959 81.4361 41.959 81.3413V80.2938C41.959 80.1988 42.0153 80.1126 42.1026 80.0729L48.0576 77.3567C48.1347 77.3218 48.2243 77.3274 48.2957 77.3722C48.3672 77.4171 48.4104 77.4945 48.4104 77.5778V78.8685Z" fill="#5D2940"/>
<path d="M54.4665 75.7827L51.8114 84.614C51.7804 84.7172 51.6834 84.7886 51.5735 84.7886H50.3203C50.2424 84.7886 50.1687 84.7523 50.1216 84.6907C50.0749 84.6293 50.0603 84.5499 50.0824 84.4761L52.7374 75.6448C52.7684 75.541 52.8654 75.4702 52.9753 75.4702H54.2285C54.3065 75.4702 54.3801 75.5062 54.4273 75.5676C54.4739 75.6292 54.4886 75.7089 54.4665 75.7827Z" fill="#5D2940"/>
<path d="M62.3908 81.3778C62.3908 81.4733 62.334 81.5596 62.2459 81.5993L56.2908 84.279C56.2578 84.2938 56.2228 84.3014 56.1876 84.3014C56.1409 84.3014 56.094 84.2882 56.0536 84.2629C55.9826 84.2178 55.9395 84.1406 55.9395 84.0578V82.7664C55.9395 82.669 55.9985 82.5808 56.0896 82.5425L60.1891 80.8175L56.0896 79.0923C55.9985 79.0541 55.9395 78.9656 55.9395 78.8684V77.5773C55.9395 77.4942 55.9826 77.417 56.0536 77.3722C56.1248 77.3274 56.2144 77.3213 56.2908 77.3556L62.2459 80.0356C62.334 80.0753 62.3908 80.1617 62.3908 80.257V81.3778Z" fill="#5D2940"/>
<path fill-rule="evenodd" clip-rule="evenodd" d="M48.3169 40.692C50.5719 39.5366 51.3505 35.6786 51.384 35.5064C51.3848 35.5037 51.4555 35.2477 52.1718 35.2477L52.2288 35.2472C52.7814 35.2472 52.9538 35.4255 52.9712 35.5461C53.0047 35.709 53.8133 39.5541 56.0321 40.692C57.5267 41.4579 59.3134 41.6185 60.5487 41.6185C62.1334 41.6185 63.7251 41.3461 64.5096 40.9403C66.2017 40.0655 66.3521 39.4326 66.9671 35.7665C66.9905 35.6284 67.0302 35.5117 67.0857 35.4201C67.103 35.3916 67.133 35.3592 67.1745 35.3143L67.1753 35.3134C67.3371 35.1422 67.5815 34.883 67.5666 34.2825C67.5648 34.2067 67.5678 34.0764 67.5713 33.931L67.572 33.8961C67.578 33.6408 67.5839 33.3548 67.5745 33.1914C67.5209 32.2915 66.726 31.9287 66.3233 31.8647C64.8048 31.5582 63.0909 31.4028 61.2291 31.4028C60.4259 31.4028 59.5962 31.4325 58.7638 31.4912L58.6179 31.5015C56.9211 31.6191 55.9862 31.6842 54.8501 32.1838C54.6201 32.2849 54.3648 32.4065 54.0902 32.5448C53.6999 32.7424 53.1196 32.9631 52.8228 33.0272C52.3221 33.1356 52.0261 33.1358 51.5252 33.0269C51.2297 32.9629 50.6496 32.7422 50.2583 32.5448C49.9832 32.406 49.7276 32.2844 49.4989 32.1838C48.3637 31.6846 47.4294 31.6195 45.733 31.5013L45.7288 31.501L45.5859 31.4912C44.7545 31.433 43.9258 31.4033 43.1227 31.4033C41.2586 31.4033 39.5476 31.558 38.0465 31.8613C37.6305 31.928 36.8296 32.2925 36.776 33.1906C36.7655 33.3558 36.7722 33.6554 36.7779 33.8949L36.7799 34.0001C36.7824 34.1176 36.7844 34.2201 36.7829 34.2827C36.768 34.8841 37.0121 35.1428 37.18 35.3209L37.1801 35.321L37.1807 35.3216C37.2176 35.3612 37.2472 35.393 37.2642 35.4213C37.3191 35.5112 37.3588 35.6279 37.3823 35.7673C37.9979 39.4328 38.1483 40.066 39.8396 40.9405C40.6232 41.3464 42.2151 41.6187 43.801 41.6187C45.0356 41.6185 46.8217 41.4579 48.3169 40.692ZM54.8027 34.2552C54.8432 34.1573 55.3166 33.2927 59.4908 33.054C60.2123 33.0128 60.8222 32.9928 61.3554 32.9928C63.6799 32.9928 64.4046 33.3806 64.8207 34.0057C65.0693 34.3797 65.2445 35.2021 65.2462 35.7066C65.2514 36.8503 65.0247 38.8811 63.4484 39.6314C62.7026 39.9858 61.5774 40.1975 60.4381 40.1975C58.2711 40.1975 56.5484 39.4896 55.8302 38.3035C54.2807 35.7483 54.7985 34.2671 54.8027 34.2552ZM39.5275 34.0057C39.2797 34.3785 39.1045 35.2016 39.1023 35.7073C39.0975 36.8513 39.3251 38.8823 40.9006 39.6319C41.6464 39.9863 42.7718 40.198 43.9116 40.198C46.0779 40.198 47.8005 39.4901 48.5193 38.304C50.045 35.7865 49.5592 34.2905 49.5539 34.2757C49.4899 34.1207 48.9456 33.2878 44.8572 33.054C44.1364 33.0126 43.5266 32.9926 42.9929 32.9926C40.6686 32.9926 39.9438 33.3804 39.5275 34.0057Z" fill="#5D2940"/>
</svg>
