<svg width="104" height="104" viewBox="0 0 104 104" fill="none" xmlns="https://www.w3.org/2000/svg">
<path d="M60.75 54.5V21H67.25V15H71.25V11H81.25V15H86.25V21H91.75V54.5M60.75 54.5H48.25M60.75 54.5H91.75M48.25 54.5V32L12.25 14V53.5V93H48.25M48.25 54.5V93M48.25 93H91.75V54.5" stroke="#5D2940" stroke-width="2"/>
<rect x="60.25" y="61" width="31" height="6" stroke="#5D2940"/>
<rect x="60.25" y="71" width="31" height="6" stroke="#5D2940"/>
<rect x="60.25" y="81" width="31" height="6" stroke="#5D2940"/>
<path d="M67.25 21.5H86.25" stroke="#5D2940"/>
<path d="M67.25 15.5H86.25" stroke="#5D2940"/>
<rect x="20.25" y="46" width="6" height="6" stroke="#5D2940"/>
<rect x="20.25" y="57" width="6" height="6" stroke="#5D2940"/>
<rect x="20.25" y="68" width="6" height="6" stroke="#5D2940"/>
<rect x="20.25" y="35" width="6" height="6" stroke="#5D2940"/>
<rect x="34.25" y="46" width="6" height="6" stroke="#5D2940"/>
<rect x="34.25" y="57" width="6" height="6" stroke="#5D2940"/>
<rect x="34.25" y="68" width="6" height="6" stroke="#5D2940"/>
<rect x="34.25" y="35" width="6" height="6" stroke="#5D2940"/>
<path d="M23.75 93V80H29.75M29.75 80H36.25V93H29.75V80Z" stroke="#5D2940"/>
</svg>
