<svg width="104" height="104" viewBox="0 0 104 104" fill="none" xmlns="http://www.w3.org/2000/svg">
<g clip-path="url(#clip0)">
<path fill-rule="evenodd" clip-rule="evenodd" d="M27.5868 71.7673L32.8922 38.9048H26.5205L29.1008 30H45.0233L38.3884 71.7673H27.5868Z" fill="#5D2940"/>
<path d="M74.04 50.5549C77.12 52.5949 78.66 55.3549 78.66 58.8349C78.66 61.6349 77.88 64.0749 76.32 66.1549C74.8 68.2349 72.66 69.8349 69.9 70.9549C67.14 72.0749 63.96 72.6349 60.36 72.6349C56.92 72.6349 53.92 72.1549 51.36 71.1949C48.8 70.2349 46.82 68.8549 45.42 67.0549C44.02 65.2549 43.32 63.1749 43.32 60.8149C43.32 58.0549 44.06 55.6749 45.54 53.6749C47.02 51.6749 49.14 50.1349 51.9 49.0549C49.62 47.2549 48.48 44.9149 48.48 42.0349C48.48 39.4349 49.18 37.1749 50.58 35.2549C52.02 33.2949 54 31.7949 56.52 30.7549C59.08 29.7149 61.98 29.1949 65.22 29.1949C68.3 29.1949 71.02 29.6549 73.38 30.5749C75.74 31.4549 77.58 32.7149 78.9 34.3549C80.22 35.9949 80.88 37.9149 80.88 40.1149C80.88 42.5149 80.28 44.5949 79.08 46.3549C77.92 48.1149 76.24 49.5149 74.04 50.5549ZM65.04 36.3349C62.96 36.3349 61.28 36.8549 60 37.8949C58.76 38.8949 58.14 40.2949 58.14 42.0949C58.14 43.5349 58.68 44.6749 59.76 45.5149C60.88 46.3549 62.4 46.7749 64.32 46.7749C66.4 46.7749 68.06 46.2749 69.3 45.2749C70.58 44.2349 71.22 42.8549 71.22 41.1349C71.22 39.6549 70.66 38.4949 69.54 37.6549C68.42 36.7749 66.92 36.3349 65.04 36.3349ZM60.54 65.4949C63.06 65.4949 65.06 64.9149 66.54 63.7549C68.06 62.5549 68.82 60.9349 68.82 58.8949C68.82 57.2149 68.16 55.8949 66.84 54.9349C65.52 53.9349 63.7 53.4349 61.38 53.4349C58.86 53.4349 56.84 54.0149 55.32 55.1749C53.84 56.3349 53.1 57.9149 53.1 59.9149C53.1 61.6349 53.78 62.9949 55.14 63.9949C56.5 64.9949 58.3 65.4949 60.54 65.4949Z" fill="#5D2940"/>
</g>
<path fill-rule="evenodd" clip-rule="evenodd" d="M28.5674 76.4053C26.9481 75.7375 25.3816 74.8994 23.9137 73.9172C20.6291 71.7107 18.016 68.8887 16.1137 65.7131C21.1294 62.5899 22.9856 56.0946 20.2276 50.778C19.938 50.2083 19.2337 49.9857 18.661 50.2803C15.936 51.6815 13.9152 54.0518 12.9805 56.9655C12.9476 57.0571 12.9213 57.1488 12.895 57.247C12.4342 54.8309 12.3157 52.3494 12.5593 49.8809C13.5335 49.9399 14.4879 49.8744 15.416 49.691C20.0631 48.794 23.8676 45.075 24.6114 40.1512C24.7036 39.5226 24.2691 38.9333 23.6307 38.8416C20.6094 38.3899 17.5947 39.1297 15.1264 40.9303C15.6398 39.8958 16.2256 38.894 16.8904 37.9119C17.2524 37.3815 17.1076 36.6678 16.5745 36.3077C16.0479 35.9541 15.3238 36.0916 14.9618 36.622C14.4879 37.316 14.0535 38.0297 13.6519 38.7565C12.6421 41.347 11.5522 43.7522 10.7689 46.3387C10.5648 47.275 10.4069 48.2178 10.3016 49.1672C9.97902 48.7089 9.62358 48.2768 9.23523 47.8643C7.12231 45.6446 4.27219 44.3678 1.19826 44.2827C0.888897 44.2762 0.592694 44.3875 0.368897 44.597C0.145099 44.8065 0.0134535 45.1012 0.00687124 45.4024C-0.17085 51.4916 4.4894 56.6184 10.5188 57.1291C10.7228 58.3405 11.0059 59.5321 11.3679 60.7041C11.0585 60.5208 10.736 60.3506 10.4069 60.2C7.62915 58.8905 4.50915 58.7399 1.61295 59.7678C1.01396 59.9774 0.69801 60.6387 0.915226 61.241C1.94864 64.122 4.04181 66.4268 6.81953 67.7363C9.06409 68.7905 11.5259 69.0916 13.9152 68.6333C14.297 68.5613 14.6722 68.4631 15.054 68.3518C15.7254 69.3405 16.4692 70.2899 17.2788 71.1934C13.5335 70.7482 9.63674 72.1428 7.04991 75.2399C6.64181 75.7309 6.70763 76.4577 7.2013 76.8637C9.57092 78.8214 12.5527 79.7381 15.6135 79.4565C16.0018 79.4172 16.3902 79.3649 16.7654 79.2928C19.0955 78.841 21.2018 77.6952 22.8474 75.9863C24.381 76.9881 26.0003 77.8524 27.6788 78.5399C27.896 78.6315 28.1264 78.6512 28.3436 78.6053C28.7122 78.5333 29.0413 78.2845 29.1927 77.9113C29.4428 77.322 29.1598 76.6476 28.5674 76.4053ZM22.0443 41.022C20.8924 44.944 17.2261 47.6416 13.1188 47.5893C13.6783 45.6839 14.8367 44.0143 16.4691 42.816C18.1081 41.6113 20.0499 40.9958 22.0443 41.022ZM9.99877 54.7393C5.94409 54.0714 2.81092 50.7714 2.37649 46.7119C4.34459 47.0327 6.14814 47.9821 7.54358 49.4488C8.93902 50.922 9.78814 52.7684 9.99877 54.7393ZM7.81345 65.6476C5.98358 64.7768 4.51573 63.369 3.6008 61.6012C3.64687 61.5946 3.69295 61.5815 3.74561 61.575C7.71472 60.8089 11.7628 62.747 13.6322 66.3285C11.6773 66.741 9.64991 66.5119 7.81345 65.6476ZM15.1922 57.666C15.8109 55.741 17.0221 54.1107 18.661 52.9714C20.0302 56.8214 18.6413 61.1494 15.2778 63.4934C14.6129 61.6208 14.5735 59.591 15.1922 57.666ZM15.4028 77.1518C13.3755 77.3416 11.3942 76.8702 9.70257 75.816C12.7238 73.053 17.2722 72.6339 20.7542 74.7946C19.2864 76.1434 17.4236 76.9684 15.4028 77.1518Z" fill="#5D2940"/>
<path fill-rule="evenodd" clip-rule="evenodd" d="M75.4336 76.4053C77.0528 75.7375 78.6194 74.8994 80.0873 73.9172C83.3718 71.7107 85.985 68.8887 87.8873 65.7131C82.8716 62.5899 81.0154 56.0946 83.7733 50.778C84.063 50.2083 84.7673 49.9857 85.3399 50.2803C88.065 51.6815 90.0858 54.0518 91.0204 56.9655C91.0533 57.0571 91.0797 57.1488 91.106 57.247C91.5668 54.8309 91.6852 52.3494 91.4417 49.8809C90.4675 49.9399 89.5131 49.8744 88.585 49.691C83.9379 48.794 80.1333 45.075 79.3895 40.1512C79.2974 39.5226 79.7318 38.9333 80.3703 38.8416C83.3916 38.3899 86.4063 39.1297 88.8746 40.9303C88.3612 39.8958 87.7754 38.894 87.1106 37.9119C86.7485 37.3815 86.8933 36.6678 87.4265 36.3077C87.9531 35.9541 88.6771 36.0916 89.0392 36.622C89.5131 37.316 89.9475 38.0297 90.349 38.7565C91.3588 41.347 92.4488 43.7522 93.2321 46.3387C93.4361 47.275 93.5941 48.2178 93.6994 49.1672C94.022 48.7089 94.3774 48.2768 94.7658 47.8643C96.8787 45.6446 99.7288 44.3678 102.803 44.2827C103.112 44.2762 103.408 44.3875 103.632 44.597C103.856 44.8065 103.988 45.1012 103.994 45.4024C104.172 51.4916 99.5116 56.6184 93.4822 57.1291C93.2782 58.3405 92.9951 59.5321 92.6331 60.7041C92.9425 60.5208 93.265 60.3506 93.5941 60.2C96.3718 58.8905 99.4918 58.7399 102.388 59.7678C102.987 59.9774 103.303 60.6387 103.086 61.241C102.052 64.122 99.9592 66.4268 97.1814 67.7363C94.9369 68.7905 92.4751 69.0916 90.0858 68.6333C89.704 68.5613 89.3288 68.4631 88.947 68.3518C88.2756 69.3405 87.5318 70.2899 86.7222 71.1934C90.4675 70.7482 94.3642 72.1428 96.9511 75.2399C97.3592 75.7309 97.2933 76.4577 96.7997 76.8637C94.4301 78.8214 91.4483 79.7381 88.3875 79.4565C87.9992 79.4172 87.6108 79.3649 87.2356 79.2928C84.9055 78.841 82.7992 77.6952 81.1536 75.9863C79.6199 76.9881 78.0007 77.8524 76.3222 78.5399C76.105 78.6315 75.8746 78.6512 75.6574 78.6053C75.2888 78.5333 74.9597 78.2845 74.8083 77.9113C74.5582 77.322 74.8412 76.6476 75.4336 76.4053ZM81.9566 41.022C83.1085 44.944 86.7749 47.6416 90.8822 47.5893C90.3227 45.6839 89.1642 44.0143 87.5318 42.816C85.8928 41.6113 83.9511 40.9958 81.9566 41.022ZM94.0022 54.7393C98.0569 54.0714 101.19 50.7714 101.624 46.7119C99.6564 47.0327 97.8528 47.9821 96.4574 49.4488C95.062 50.922 94.2128 52.7684 94.0022 54.7393ZM96.1875 65.6476C98.0174 64.7768 99.4852 63.369 100.4 61.6012C100.354 61.5946 100.308 61.5815 100.255 61.575C96.2863 60.8089 92.2382 62.747 90.3688 66.3285C92.3237 66.741 94.3511 66.5119 96.1875 65.6476ZM88.8088 57.666C88.1901 55.741 86.9789 54.1107 85.3399 52.9714C83.9708 56.8214 85.3597 61.1494 88.7232 63.4934C89.388 61.6208 89.4275 59.591 88.8088 57.666ZM88.5982 77.1518C90.6255 77.3416 92.6068 76.8702 94.2984 75.816C91.2771 73.053 86.7288 72.6339 83.2468 74.7946C84.7146 76.1434 86.5774 76.9684 88.5982 77.1518Z" fill="#5D2940"/>
<defs>
<clipPath id="clip0">
<rect width="54" height="74" fill="white" transform="translate(26.5205 13)"/>
</clipPath>
</defs>
</svg>
