<svg width="104" height="104" viewBox="0 0 104 104" fill="none" xmlns="https://www.w3.org/2000/svg">
<path d="M13.4652 49.9375C14.6412 49.9375 15.6702 50.1685 16.5522 50.6305C17.4482 51.0925 18.1412 51.7785 18.6312 52.6885C19.1352 53.5845 19.3872 54.6765 19.3872 55.9645C19.3872 57.4485 19.0722 58.8975 18.4422 60.3115C17.8122 61.7115 16.8322 62.8665 15.5022 63.7765C14.1722 64.6865 12.5272 65.1415 10.5672 65.1415C9.7552 65.1415 8.9782 65.0575 8.2362 64.8895C7.5082 64.7075 6.9132 64.4625 6.4512 64.1545L8.0052 61.6555C8.7052 62.1315 9.6222 62.3695 10.7562 62.3695C12.1282 62.3695 13.2202 61.9845 14.0322 61.2145C14.8582 60.4445 15.4042 59.4505 15.6702 58.2325C14.8302 59.0165 13.7312 59.4085 12.3732 59.4085C11.4912 59.4085 10.6862 59.2405 9.9582 58.9045C9.2302 58.5685 8.6492 58.0855 8.2152 57.4555C7.7812 56.8115 7.5642 56.0485 7.5642 55.1665C7.5642 54.1165 7.8162 53.1995 8.3202 52.4155C8.8382 51.6175 9.5452 51.0085 10.4412 50.5885C11.3372 50.1545 12.3452 49.9375 13.4652 49.9375ZM13.2552 56.8675C14.0532 56.8675 14.6972 56.6505 15.1872 56.2165C15.6772 55.7825 15.9222 55.2295 15.9222 54.5575C15.9222 53.9695 15.7052 53.4795 15.2712 53.0875C14.8372 52.6815 14.2492 52.4785 13.5072 52.4785C12.7512 52.4785 12.1352 52.6955 11.6592 53.1295C11.1832 53.5635 10.9452 54.1445 10.9452 54.8725C10.9452 55.4885 11.1552 55.9785 11.5752 56.3425C11.9952 56.6925 12.5552 56.8675 13.2552 56.8675ZM25.5333 65.1415C23.8953 65.1415 22.6003 64.6515 21.6483 63.6715C20.6963 62.6775 20.2203 61.3125 20.2203 59.5765C20.2203 57.8125 20.5423 56.1955 21.1863 54.7255C21.8443 53.2555 22.7543 52.0935 23.9163 51.2395C25.0783 50.3715 26.4013 49.9375 27.8853 49.9375C29.5233 49.9375 30.8183 50.4345 31.7703 51.4285C32.7223 52.4085 33.1983 53.7665 33.1983 55.5025C33.1983 57.2665 32.8693 58.8835 32.2113 60.3535C31.5673 61.8235 30.6643 62.9925 29.5023 63.8605C28.3403 64.7145 27.0173 65.1415 25.5333 65.1415ZM25.8483 62.2645C26.6603 62.2645 27.3603 61.9145 27.9483 61.2145C28.5503 60.5145 29.0053 59.6465 29.3133 58.6105C29.6213 57.5605 29.7753 56.5525 29.7753 55.5865C29.7753 54.6485 29.5793 53.9555 29.1873 53.5075C28.8093 53.0455 28.2703 52.8145 27.5703 52.8145C26.7583 52.8145 26.0513 53.1645 25.4493 53.8645C24.8613 54.5645 24.4133 55.4395 24.1053 56.4895C23.7973 57.5255 23.6433 58.5265 23.6433 59.4925C23.6433 60.4305 23.8323 61.1305 24.2103 61.5925C24.6023 62.0405 25.1483 62.2645 25.8483 62.2645ZM37.8327 58.1275C36.8667 58.1275 36.0897 57.8335 35.5017 57.2455C34.9277 56.6575 34.6407 55.8455 34.6407 54.8095C34.6407 53.9275 34.8087 53.1225 35.1447 52.3945C35.4807 51.6665 35.9637 51.0925 36.5937 50.6725C37.2377 50.2385 37.9867 50.0215 38.8407 50.0215C39.8067 50.0215 40.5767 50.3155 41.1507 50.9035C41.7387 51.4915 42.0327 52.3035 42.0327 53.3395C42.0327 54.2355 41.8647 55.0475 41.5287 55.7755C41.1927 56.4895 40.7027 57.0635 40.0587 57.4975C39.4287 57.9175 38.6867 58.1275 37.8327 58.1275ZM47.7237 50.1895H50.3697L37.5597 64.8895H34.8927L47.7237 50.1895ZM38.0217 56.4055C38.6377 56.4055 39.1067 56.1045 39.4287 55.5025C39.7507 54.9005 39.9117 54.2215 39.9117 53.4655C39.9117 52.8915 39.7997 52.4645 39.5757 52.1845C39.3517 51.8905 39.0437 51.7435 38.6517 51.7435C38.0357 51.7435 37.5667 52.0445 37.2447 52.6465C36.9227 53.2485 36.7617 53.9275 36.7617 54.6835C36.7617 55.2575 36.8737 55.6915 37.0977 55.9855C37.3217 56.2655 37.6297 56.4055 38.0217 56.4055ZM46.4427 65.0575C45.4627 65.0575 44.6857 64.7635 44.1117 64.1755C43.5377 63.5875 43.2507 62.7755 43.2507 61.7395C43.2507 60.8575 43.4187 60.0525 43.7547 59.3245C44.0907 58.5965 44.5737 58.0225 45.2037 57.6025C45.8477 57.1825 46.5897 56.9725 47.4297 56.9725C48.4097 56.9725 49.1867 57.2665 49.7607 57.8545C50.3487 58.4425 50.6427 59.2545 50.6427 60.2905C50.6427 61.1865 50.4747 61.9985 50.1387 62.7265C49.8027 63.4405 49.3127 64.0075 48.6687 64.4275C48.0387 64.8475 47.2967 65.0575 46.4427 65.0575ZM46.6317 63.3565C47.2337 63.3565 47.6957 63.0555 48.0177 62.4535C48.3537 61.8375 48.5217 61.1515 48.5217 60.3955C48.5217 59.8215 48.4027 59.3945 48.1647 59.1145C47.9407 58.8205 47.6397 58.6735 47.2617 58.6735C46.6457 58.6735 46.1697 58.9815 45.8337 59.5975C45.5117 60.1995 45.3507 60.8785 45.3507 61.6345C45.3507 62.2085 45.4627 62.6425 45.6867 62.9365C45.9247 63.2165 46.2397 63.3565 46.6317 63.3565Z" fill="#5D2940"/>
<path d="M5.20215 42.9796L4.20215 42.9796L4.20215 42.9797L5.20215 42.9796ZM70.5704 48.7607L71.2508 48.0279L71.2206 47.9999L71.1882 47.9744L70.5704 48.7607ZM67.013 70.55L67.4556 71.4467L67.4679 71.4406L67.4801 71.4341L67.013 70.55ZM12.3171 39.4224L12.0352 38.4629L12.3171 39.4224ZM53.3385 74.5521C53.3385 74.6764 53.3031 74.7346 53.3216 74.6932C53.3353 74.6625 53.3692 74.5987 53.4384 74.497C53.5772 74.2931 53.8006 74.0192 54.1165 73.6723C54.7454 72.9819 55.6519 72.0985 56.7501 71.0592C58.9271 68.9993 61.8175 66.3657 64.5025 63.6344C67.1786 60.9122 69.7323 58.0132 71.2187 55.3881C71.9607 54.0776 72.4844 52.7541 72.5722 51.5012C72.6634 50.2003 72.2792 48.9827 71.2508 48.0279L69.89 49.4936C70.4182 49.9839 70.6317 50.5821 70.5771 51.3614C70.5191 52.1887 70.1536 53.2099 69.4783 54.4027C68.1298 56.7842 65.7364 59.5263 63.0762 62.2323C60.425 64.9293 57.59 67.5111 55.3755 69.6065C54.2781 70.645 53.3224 71.5742 52.638 72.3255C52.2973 72.6995 52.0014 73.0537 51.7848 73.372C51.6765 73.5313 51.5738 73.7021 51.4953 73.8778C51.4216 74.0429 51.3385 74.2794 51.3385 74.5521H53.3385ZM71.1882 47.9744C69.4867 46.6374 67.1577 45.6338 64.4597 44.8691C61.7506 44.1013 58.6041 43.5566 55.2163 43.1743C48.4418 42.4099 40.6104 42.2855 33.2063 42.369C29.501 42.4108 25.8948 42.5047 22.5745 42.5977C19.2504 42.6907 16.2198 42.7825 13.6505 42.8206C11.0729 42.8588 9.00088 42.842 7.58338 42.7239C6.86452 42.6641 6.3789 42.5828 6.09607 42.495C5.94971 42.4496 5.93129 42.4241 5.96809 42.4527C6.02015 42.4932 6.2021 42.6686 6.20215 42.9794L4.20215 42.9797C4.20222 43.4851 4.48755 43.8351 4.74066 44.0318C4.97849 44.2167 5.25876 44.3292 5.50305 44.4051C6.00151 44.5598 6.66499 44.6544 7.41745 44.7171C8.94259 44.844 11.1021 44.8585 13.6801 44.8203C16.2664 44.782 19.3155 44.6897 22.6304 44.5969C25.9492 44.504 29.5413 44.4104 33.2288 44.3688C40.6105 44.2856 48.3429 44.4114 54.9921 45.1617C58.3162 45.5368 61.3464 46.0655 63.9143 46.7933C66.4933 47.5242 68.5415 48.4383 69.9526 49.547L71.1882 47.9744ZM66.5704 69.6532C64.4796 70.6851 60.8546 72.2602 57.7702 73.2781C56.2149 73.7914 54.8664 74.1393 53.9389 74.2283C53.4566 74.2746 53.2144 74.2366 53.1351 74.2079C53.1107 74.199 53.1742 74.2162 53.2432 74.3043C53.3213 74.4037 53.3385 74.5063 53.3385 74.5521H51.3385C51.3385 74.8949 51.4371 75.2424 51.67 75.5392C51.894 75.8244 52.1857 75.9912 52.4547 76.0885C52.9623 76.2722 53.568 76.273 54.1298 76.2192C55.2903 76.1079 56.8144 75.6997 58.397 75.1774C61.5884 74.1241 65.3007 72.5102 67.4556 71.4467L66.5704 69.6532ZM6.20215 42.9796C6.20215 43.2846 6.02623 43.4045 6.13249 43.2949C6.19676 43.2287 6.32688 43.1211 6.54467 42.9773C6.97339 42.6943 7.59801 42.3643 8.32761 42.0252C9.78194 41.3491 11.514 40.7006 12.5989 40.3818L12.0352 38.4629C10.8441 38.8129 9.01866 39.4984 7.48456 40.2115C6.71993 40.5669 5.99259 40.9453 5.44289 41.3081C5.17148 41.4873 4.90578 41.687 4.69653 41.9028C4.52928 42.0753 4.20215 42.4523 4.20215 42.9796H6.20215ZM12.5989 40.3818C30.0019 35.269 46.3588 32.4032 60.0274 31.5384C73.7335 30.6713 84.614 31.8248 91.1436 34.6423C94.4062 36.0501 96.4367 37.8095 97.301 39.792C98.1458 41.7295 97.9759 44.1162 96.3089 47.0441C94.6315 49.9905 91.4845 53.3873 86.5747 57.1943C81.6754 60.9932 75.0723 65.1613 66.5459 69.6658L67.4801 71.4341C76.0721 66.895 82.7816 62.6662 87.8003 58.7748C92.8084 54.8915 96.1848 51.3046 98.047 48.0336C99.9198 44.7442 100.306 41.6799 99.1343 38.9926C97.9823 36.3503 95.4238 34.311 91.936 32.806C84.9648 29.7979 73.6987 28.6695 59.9011 29.5424C46.0659 30.4177 29.5618 33.3138 12.0352 38.4629L12.5989 40.3818Z" fill="#5D2940"/>
<path d="M56.5 31L61.232 45.2032" stroke="#5D2940"/>
<path d="M71.9053 53.431L82.9588 62.1235" stroke="#5D2940"/>
<path d="M69.2363 58.046L77.6853 64.3245" stroke="#5D2940"/>
<path d="M51 31.5L55.0057 43.8692" stroke="#5D2940"/>
<path d="M8.75977 36.3096C10.9832 35.4203 12.3172 34.9756 14.9853 34.0862" stroke="#5D2940" stroke-linecap="round"/>
<path d="M20.3223 32.3075C28.4968 30.7264 34.4007 29.5405 41.667 28.75" stroke="#5D2940" stroke-linecap="round"/>
<path d="M96.3613 55.431C93.2486 58.5438 88.3571 62.5459 85.689 64.3246" stroke="#5D2940" stroke-linecap="round"/>
<path d="M94.1387 62.5458C92.0635 64.4135 88.8025 66.8148 87.0238 67.882" stroke="#5D2940" stroke-linecap="round"/>
</svg>
